<svg xmlns="http://www.w3.org/2000/svg" width="1004.574" height="229.404" viewBox="0 0 1004.574 229.404">
  <path id="Path_22175" data-name="Path 22175" d="M82.3-168.432c0,64.438-69.542,75.284-69.542,141V0H114.2V-31.9H47.85a24.144,24.144,0,0,1-.319-4.785c0-36.685,69.861-62.843,69.861-133.023,0-35.728-17.864-56.144-52.316-56.144S12.76-205.436,12.76-169.708v21.692H45.936v-23.925c0-15.95,7.018-22.011,18.183-22.011S82.3-188.529,82.3-168.432ZM139.084-33.814V0H172.9V-33.814Zm91.553-138.127c0-15.95,7.018-22.011,18.183-22.011S267-187.891,267-171.941V-51.359c0,15.95-7.018,22.011-18.183,22.011s-18.183-6.061-18.183-22.011ZM195.547-53.592c0,35.728,18.821,56.144,53.273,56.144s53.273-20.416,53.273-56.144V-169.708c0-35.728-18.821-56.144-53.273-56.144s-53.273,20.416-53.273,56.144ZM369.721-169.708c0,63.8,68.585,72.413,68.585,118.349,0,15.95-7.018,21.692-18.183,21.692S401.94-35.409,401.94-51.359v-15.95H368.764v13.717c0,35.728,17.864,56.144,52.316,56.144S473.4-17.864,473.4-53.592c0-63.8-68.585-72.413-68.585-118.349,0-15.95,6.38-22.011,17.545-22.011s17.545,6.061,17.545,22.011v9.251h33.176v-7.018c0-35.728-17.545-56.144-51.678-56.144S369.721-205.436,369.721-169.708ZM528.583-191.4h60.61v-31.9h-95.7V0h95.7V-31.9h-60.61V-97.3h48.169v-31.9H528.583ZM719.983,0c-3.509-8.294-3.828-16.269-3.828-27.115V-61.567c0-23.287-5.742-40.194-23.287-47.531,15.631-7.337,22.968-22.33,22.968-45.3v-17.545c0-34.452-15.631-51.359-52-51.359H610.885V0h35.09V-90.915H658.1c15.95,0,22.968,7.656,22.968,28.391v35.09c0,18.183,1.276,21.692,3.19,27.434Zm-57.1-191.4c12.441,0,17.864,7.018,17.864,22.968v22.011c0,17.864-7.975,23.606-21.054,23.606H645.975V-191.4ZM739.123,0h35.09V-223.3h-35.09Zm95.7-191.4h60.61v-31.9h-95.7V0h95.7V-31.9h-60.61V-97.3h48.169v-31.9H834.823Zm77.836,21.692c0,63.8,68.585,72.413,68.585,118.349,0,15.95-7.018,21.692-18.183,21.692s-18.183-5.742-18.183-21.692v-15.95H911.7v13.717c0,35.728,17.864,56.144,52.316,56.144s52.316-20.416,52.316-56.144c0-63.8-68.585-72.413-68.585-118.349,0-15.95,6.38-22.011,17.545-22.011s17.545,6.061,17.545,22.011v9.251h33.176v-7.018c0-35.728-17.545-56.144-51.678-56.144S912.659-205.436,912.659-169.708Z" transform="translate(-12.26 226.352)" fill="none" stroke="#707070" stroke-width="1"/>
</svg>
