<svg xmlns="http://www.w3.org/2000/svg" width="274.46" height="740.893" viewBox="0 0 274.46 740.893">
  <path id="Path_22174" data-name="Path 22174" d="M-265.05-266h-61.18L-368.79,0h38.38l7.22-48.26h51.3L-264.67,0h42.18Zm-32.68,47.12,20.14,134.52h-40.28ZM-140.03-266h-63.08V0h65.74c41.8,0,63.46-22.04,63.46-63.08V-84.74c0-28.12-8.74-48.26-31.16-57,18.62-8.74,26.98-26.22,26.98-53.58v-9.5C-78.09-245.86-96.71-266-140.03-266Zm-2.66,146.3c19,0,26.98,7.6,26.98,32.3v23.18c0,19.76-7.6,26.22-21.66,26.22h-23.94v-81.7Zm1.52-108.3c14.82,0,21.28,8.36,21.28,27.36v14.82c0,21.28-9.5,28.12-25.08,28.12h-16.34V-228Zm130.72,23.18c0-19,8.36-26.22,21.66-26.22s21.66,7.22,21.66,26.22V-61.18c0,19-8.36,26.22-21.66,26.22s-21.66-7.22-21.66-26.22ZM-52.25-63.84c0,42.56,22.42,66.88,63.46,66.88S74.67-21.28,74.67-63.84V-202.16c0-42.56-22.42-66.88-63.46-66.88s-63.46,24.32-63.46,66.88ZM99.75-266V-63.46c0,42.56,21.28,66.88,62.32,66.88s62.32-24.32,62.32-66.88V-266H184.87V-60.8c0,19-8.36,25.84-21.66,25.84S141.55-41.8,141.55-60.8V-266Zm140.98,38h43.7V0h41.8V-228h43.7v-38H240.73Z" transform="translate(270.04 370.93) rotate(-90)" fill="none" stroke="#fff" stroke-width="2"/>
</svg>
