<svg xmlns="http://www.w3.org/2000/svg" width="884.63" height="229.404" viewBox="0 0 884.63 229.404">
  <path id="Path_22182" data-name="Path 22182" d="M65.714-223.3H12.76V0H67.947c35.09,0,53.273-18.5,53.273-52.954V-71.137c0-23.606-7.337-40.513-26.158-47.85,15.631-7.337,22.649-22.011,22.649-44.979v-7.975C117.711-206.393,102.08-223.3,65.714-223.3ZM63.481-100.485c15.95,0,22.649,6.38,22.649,27.115v19.459c0,16.588-6.38,22.011-18.183,22.011H47.85v-68.585ZM64.757-191.4c12.441,0,17.864,7.018,17.864,22.968v12.441c0,17.864-7.975,23.606-21.054,23.606H47.85V-191.4Zm112.607,0h60.61v-31.9h-95.7V0h95.7V-31.9h-60.61V-97.3h48.169v-31.9H177.364ZM334.631,0h36.047V-223.3H339.416V-89.639L303.369-223.3H259.347V0h31.581V-161.733Zm96.338-191.4h60.61v-31.9h-95.7V0h95.7V-31.9h-60.61V-97.3h48.169v-31.9H430.969Zm117.392,0H606.1v-31.9H513.271V0h35.09V-92.191h45.3v-31.9h-45.3ZM623.007,0H658.1V-223.3h-35.09Zm50.4-191.4h36.685V0h35.09V-191.4h36.685v-31.9H673.409Zm119.306,21.692c0,63.8,68.585,72.413,68.585,118.349,0,15.95-7.018,21.692-18.183,21.692s-18.183-5.742-18.183-21.692v-15.95H791.758v13.717c0,35.728,17.864,56.144,52.316,56.144S896.39-17.864,896.39-53.592c0-63.8-68.585-72.413-68.585-118.349,0-15.95,6.38-22.011,17.545-22.011s17.545,6.061,17.545,22.011v9.251h33.176v-7.018c0-35.728-17.545-56.144-51.678-56.144S792.715-205.436,792.715-169.708Z" transform="translate(-12.26 226.352)" fill="none" stroke="#fff" stroke-width="1" opacity="0.781"/>
</svg>
