<svg xmlns="http://www.w3.org/2000/svg" width="228.306" height="569.39" viewBox="0 0 228.306 569.39"><defs><style>.a{opacity:0.671;isolation:isolate;}.b,.c{fill:none;}.b{stroke:#4e4e4e;stroke-miterlimit:10;}</style></defs><g class="a" transform="matrix(-1, 0.017, -0.017, -1, 198.932, 417.409)"><g transform="translate(-36.608 -148.945)"><path class="b" d="M81.082,49.345Z" transform="translate(23.872 111.26)"/><path class="b" d="M79.23,49.345-9.817-111.26l-5.52,236.547Z" transform="translate(25.724 111.26)"/><path class="b" d="M80.9,204.865,76.833,304.53l-89.561-24.26Z" transform="translate(24.054 -44.26)"/><path class="b" d="M74.263,377.318l-92.2,58.545,2.345-82.894Z" transform="translate(26.623 -117.048)"/><path class="b" d="M74.292,401.04,194.1,499.748-17.82,459.907Z" transform="translate(26.595 -140.77)"/><path class="b" d="M202.7,556.439l-121.174,48-90.515-87.9Z" transform="translate(17.995 -197.311)"/><path class="b" d="M69.109,603.775l-90.071-34.625.589-52.217Z" transform="translate(28.901 -197.688)"/><path class="b" d="M279.11,479.024,245.2,358.915l-85.9,21.4Z" transform="translate(-58.417 -120.046)"/><path class="b" d="M245.2,283.129l-81.828-78.264L159.3,304.53Z" transform="translate(-58.417 -44.26)"/><g transform="translate(4.214 371.708)"><path class="b" d="M70.427,656.35,21.393,699.27-20.53,620.947Z" transform="translate(24.579 -620.947)"/><path class="b" d="M14.991,699.407-30.98,812.533-27.3,621.495Z" transform="translate(30.98 -621.085)"/></g><path class="c" d="M368.486,233.2l-6.229,67.316L392.2,256.565Z" transform="translate(-158.261 -58.198)"/><path class="c" d="M322.89,17.057,368.4,61.675,354.664,5.443Z" transform="translate(-138.895 53.847)"/><g transform="translate(0 563.123)"><path class="b" d="M-27.3,621.495Z" transform="translate(30.98 -621.085)"/></g></g></g></svg>