<svg xmlns="http://www.w3.org/2000/svg" width="1362.52" height="200.764" viewBox="0 0 1362.52 200.764">
  <path id="Path_22180" data-name="Path 22180" d="M71.145-72.819v27.9c0,13.95-6.138,18.972-15.9,18.972s-15.9-5.022-15.9-18.972V-150.381c0-13.95,6.138-19.251,15.9-19.251s15.9,5.3,15.9,19.251v20.925h29.016v-18.972c0-31.248-15.624-49.1-45.756-49.1s-45.756,17.856-45.756,49.1V-46.872c0,31.248,15.624,49.1,45.756,49.1s45.756-17.856,45.756-49.1V-72.819Zm78.4-94.581h53.01v-27.9h-83.7V0h83.7V-27.9h-53.01V-85.1h42.129V-113H149.544ZM316.944,0c-3.069-7.254-3.348-14.229-3.348-23.715V-53.847c0-20.367-5.022-35.154-20.367-41.571,13.671-6.417,20.088-19.53,20.088-39.618v-15.345c0-30.132-13.671-44.919-45.477-44.919H221.526V0h30.69V-79.515h10.6c13.95,0,20.088,6.7,20.088,24.831v30.69c0,15.9,1.116,18.972,2.79,23.994ZM267-167.4c10.881,0,15.624,6.138,15.624,20.088v19.251c0,15.624-6.975,20.646-18.414,20.646h-12V-167.4ZM401.76-195.3H356.841L325.593,0h28.179l5.3-35.433h37.665L402.039,0h30.969Zm-23.994,34.6,14.787,98.766H362.979Zm111.879-34.6H446.958V0h26.784V-138.1L496.62,0h29.016l21.2-140.058V0h29.016V-195.3H533.169L512.244-56.637ZM598.176,0h30.69V-195.3h-30.69Zm113-72.819v27.9c0,13.95-6.138,18.972-15.9,18.972s-15.9-5.022-15.9-18.972V-150.381c0-13.95,6.138-19.251,15.9-19.251s15.9,5.3,15.9,19.251v20.925h29.016v-18.972c0-31.248-15.624-49.1-45.756-49.1s-45.756,17.856-45.756,49.1V-46.872c0,31.248,15.624,49.1,45.756,49.1s45.756-17.856,45.756-49.1V-72.819Zm87.048-75.609c0,55.8,59.985,63.333,59.985,103.509,0,13.95-6.138,18.972-15.9,18.972s-15.9-5.022-15.9-18.972v-13.95H797.382v12c0,31.248,15.624,49.1,45.756,49.1s45.756-17.856,45.756-49.1c0-55.8-59.985-63.333-59.985-103.509,0-13.95,5.58-19.251,15.345-19.251s15.345,5.3,15.345,19.251v8.091h29.016v-6.138c0-31.248-15.345-49.1-45.2-49.1S798.219-179.676,798.219-148.428ZM937.161-83.7h34.875V0h31.248V-195.3H972.036v83.7H937.161v-83.7h-30.69V0h30.69ZM1025.6,0h30.69V-195.3H1025.6Zm83.7-167.4h53.01v-27.9h-83.7V0h83.7V-27.9H1109.3V-85.1h42.129V-113H1109.3ZM1181.286,0h81.189V-27.9h-50.5V-195.3h-30.69Zm94.581,0h48.546c30.69,0,45.756-17.019,45.756-48.267v-98.766c0-31.248-15.066-48.267-45.756-48.267h-48.546Zm47.988-167.4c9.765,0,15.624,5.022,15.624,18.972V-46.872c0,13.95-5.859,18.972-15.624,18.972h-17.3V-167.4Z" transform="translate(-8.149 198.032)" fill="none" stroke="#707070" stroke-width="1"/>
</svg>
