<svg xmlns="http://www.w3.org/2000/svg" xmlns:xlink="http://www.w3.org/1999/xlink" width="412.195" height="407.195" viewBox="0 0 412.195 407.195">
  <defs>
    <linearGradient id="linear-gradient" x1="-0.275" y1="14.358" x2="3.719" y2="-0.362" gradientUnits="objectBoundingBox">
      <stop offset="0" stop-color="#2199c9"/>
      <stop offset="0.31" stop-color="#105976"/>
      <stop offset="0.399" stop-color="#2199c9"/>
      <stop offset="0.468" stop-color="#2758c6"/>
      <stop offset="0.618" stop-color="#435fb9"/>
      <stop offset="0.734" stop-color="#1266ed"/>
      <stop offset="0.896" stop-color="#07277c"/>
      <stop offset="1" stop-color="#0e4257"/>
    </linearGradient>
    <linearGradient id="linear-gradient-12" x1="1.275" y1="14.358" x2="-2.719" y2="-0.362" xlink:href="#linear-gradient"/>
  </defs>
  <g id="Group_860" data-name="Group 860" transform="translate(-261.402 -5030.402)">
    <ellipse id="Ellipse_160" data-name="Ellipse 160" cx="126.5" cy="124" rx="126.5" ry="124" transform="translate(341 5110)" fill="#5fc7f0"/>
    <g id="Group_848" data-name="Group 848" transform="translate(254.401 4826.003)">
      <g id="Group_846" data-name="Group 846" transform="translate(32.274 280.795)">
        <g id="Group_843" data-name="Group 843" transform="translate(245.279 0)">
          <g id="Group_842" data-name="Group 842" transform="translate(13.916)">
            <path id="Path_22186" data-name="Path 22186" d="M207.4,425.751a22.721,22.721,0,0,0-11.156-.84,12.355,12.355,0,0,0-2.273.7,12.434,12.434,0,0,0,1.84-1.5c1.83-1.715,3.788-4.91,4.41-9.834a39.548,39.548,0,0,0-.332-9.49c-.4-2.873-.9-4.978-.9-4.978s-.5.6-1.249,1.68c-.761,1.058-1.718,2.674-2.792,4.5a43.588,43.588,0,0,0-3.085,6.387A25.466,25.466,0,0,0,190,419.93a7.822,7.822,0,0,0,1.045,5.08,4.394,4.394,0,0,0,1.415,1.406,4.316,4.316,0,0,0,.251,1.956,7.056,7.056,0,0,0,3.526,3.829,21.435,21.435,0,0,0,8.011,2.278,36.476,36.476,0,0,0,8.281-.353,43.591,43.591,0,0,0,6.414-1.548c1.61-.5,2.581-.888,2.581-.888s-2.087-1.041-4.883-2.3A80.924,80.924,0,0,0,207.4,425.751Z" transform="translate(-189.958 -180.022)" stroke="#707070" stroke-miterlimit="10" stroke-width="1" fill="url(#linear-gradient)"/>
            <path id="Path_22187" data-name="Path 22187" d="M229.592,417.089a76.379,76.379,0,0,0-9.778-1.689,22.619,22.619,0,0,0-11.1,1.423,12.691,12.691,0,0,0-2.091,1.135,12.187,12.187,0,0,0,1.5-1.834c1.452-2.041,2.709-5.588,2.342-10.513a40.81,40.81,0,0,0-2.247-9.229c-.485-1.365-.954-2.535-1.3-3.363l-.6-1.342-.869,1.91a52.138,52.138,0,0,0-1.821,4.976,40.979,40.979,0,0,0-1.73,6.874,25.425,25.425,0,0,0-.317,7.76,7.837,7.837,0,0,0,2.049,4.771,4.337,4.337,0,0,0,1.664,1.089,4.38,4.38,0,0,0,.643,1.869,7.034,7.034,0,0,0,4.219,3.039,21.425,21.425,0,0,0,8.318.624,38.014,38.014,0,0,0,8.048-2.02,49.5,49.5,0,0,0,5.968-2.817c.74-.407,1.33-.753,1.734-1l.6-.407-1.481-.365Z" transform="translate(-179.291 -187.59)" stroke="#707070" stroke-miterlimit="10" stroke-width="1" fill="url(#linear-gradient)"/>
            <path id="Path_22188" data-name="Path 22188" d="M230.219,402.352a27.552,27.552,0,0,0-6.455,1.489,20.9,20.9,0,0,0-4.116,2.153,12.607,12.607,0,0,0-1.83,1.523,12.157,12.157,0,0,0,1.114-2.091,12.606,12.606,0,0,0,.958-4.474,18.516,18.516,0,0,0-.8-6.306,41.207,41.207,0,0,0-4.035-8.576c-1.494-2.477-2.836-4.248-2.836-4.248s-.176.782-.436,2.066a44.666,44.666,0,0,0-.805,5.234,43.149,43.149,0,0,0-.315,7.08,26.413,26.413,0,0,0,1.255,7.663,7.874,7.874,0,0,0,2.981,4.269,4.216,4.216,0,0,0,1.834.716,4.487,4.487,0,0,0,1.021,1.715,7,7,0,0,0,4.736,2.112,20.859,20.859,0,0,0,8.273-1.062,36.817,36.817,0,0,0,7.474-3.6,55.376,55.376,0,0,0,5.3-3.945,23.9,23.9,0,0,0,1.969-1.863s-2.273-.1-5.346-.16A73.758,73.758,0,0,0,230.219,402.352Z" transform="translate(-170.725 -196.762)" stroke="#707070" stroke-miterlimit="10" stroke-width="1" fill="url(#linear-gradient)"/>
            <path id="Path_22189" data-name="Path 22189" d="M238.566,387.173a29.98,29.98,0,0,0-6.009,2.757,17.366,17.366,0,0,0-3.584,2.942,12.581,12.581,0,0,0-1.5,1.85,12.227,12.227,0,0,0,.691-2.261,14.486,14.486,0,0,0,.021-4.586,17.544,17.544,0,0,0-2.06-6.028,39.4,39.4,0,0,0-5.655-7.592c-2-2.147-3.632-3.6-3.632-3.6s-.046.79-.014,2.114.015,3.141.245,5.286c.4,4.25,1.267,9.683,3.881,14.269a7.825,7.825,0,0,0,3.765,3.578,4.244,4.244,0,0,0,1.946.336,4.446,4.446,0,0,0,1.34,1.471,7.046,7.046,0,0,0,5.074,1.128c5.462-.535,10.745-4.1,14.483-7.715a44.8,44.8,0,0,0,4.412-4.916c1-1.344,1.556-2.218,1.556-2.218s-2.284.344-5.267.913A79.987,79.987,0,0,0,238.566,387.173Z" transform="translate(-164.964 -207.154)" stroke="#707070" stroke-miterlimit="10" stroke-width="1" fill="url(#linear-gradient)"/>
            <path id="Path_22190" data-name="Path 22190" d="M244.45,370.484c-4.458,2.6-6.978,5.312-8.27,7.5a20.35,20.35,0,0,0-1.079,2.12,8.958,8.958,0,0,0,.2-2.361,16.16,16.16,0,0,0-4.107-9.99,37.844,37.844,0,0,0-7.071-6.31c-2.375-1.7-4.255-2.794-4.255-2.794s.1.78.386,2.07c.317,1.3.714,3.085,1.307,5.128.307,1.023.674,2.112,1.11,3.236.39,1.114.84,2.257,1.375,3.406a28.808,28.808,0,0,0,4.178,6.567,7.771,7.771,0,0,0,4.391,2.749,4.3,4.3,0,0,0,1.979-.058,4.394,4.394,0,0,0,1.6,1.172,7.1,7.1,0,0,0,5.211.1,19.648,19.648,0,0,0,7.175-4.225,34.407,34.407,0,0,0,3.02-3.006c.888-1.062,1.707-2.155,2.446-3.224a37.177,37.177,0,0,0,3.331-5.7c.724-1.516,1.1-2.485,1.1-2.485s-2.178.794-5,1.944A88.865,88.865,0,0,0,244.45,370.484Z" transform="translate(-162.118 -218.332)" stroke="#707070" stroke-miterlimit="10" stroke-width="1" fill="url(#linear-gradient)"/>
            <path id="Path_22191" data-name="Path 22191" d="M246.9,353.978a25.668,25.668,0,0,0-4.41,4.9,16.829,16.829,0,0,0-2.207,4.111,15.333,15.333,0,0,0-.6,2.3,10.4,10.4,0,0,0-.309-2.356,14.792,14.792,0,0,0-1.713-4.225,19.681,19.681,0,0,0-4.3-4.734,38.026,38.026,0,0,0-8.206-4.754c-2.657-1.187-4.711-1.881-4.711-1.881s.251.743.776,1.948,1.373,2.875,2.323,4.756c2.064,3.746,4.927,8.4,9.189,11.594a7.714,7.714,0,0,0,4.839,1.813,4.307,4.307,0,0,0,1.935-.452,4.36,4.36,0,0,0,1.8.828,7.128,7.128,0,0,0,5.138-.95c4.756-2.636,8.279-7.984,10.274-12.788a38.2,38.2,0,0,0,2.107-6.26c.415-1.631.6-2.659.6-2.659s-1.981,1.216-4.526,2.916A87.542,87.542,0,0,0,246.9,353.978Z" transform="translate(-161.582 -230.883)" stroke="#707070" stroke-miterlimit="10" stroke-width="1" fill="url(#linear-gradient)"/>
            <path id="Path_22192" data-name="Path 22192" d="M245.76,340.054a25.37,25.37,0,0,0-3.35,5.692,18.737,18.737,0,0,0-1.323,4.47,12.506,12.506,0,0,0-.133,2.371,12.218,12.218,0,0,0-.772-2.246,13.415,13.415,0,0,0-2.539-3.788,19.754,19.754,0,0,0-5.142-3.773,38.8,38.8,0,0,0-9.007-3c-2.836-.627-4.985-.892-4.985-.892s.394.68,1.145,1.755c.722,1.081,1.935,2.537,3.246,4.186a46.945,46.945,0,0,0,4.906,5.115,25.683,25.683,0,0,0,6.443,4.383,7.7,7.7,0,0,0,5.1.8,4.381,4.381,0,0,0,1.809-.834,4.311,4.311,0,0,0,1.921.448,7.162,7.162,0,0,0,4.848-1.966,21.3,21.3,0,0,0,4.91-6.713,34.731,34.731,0,0,0,2.558-7.891,40.646,40.646,0,0,0,.788-6.553c.085-1.684.062-2.726.062-2.726s-1.7,1.593-3.856,3.771A83.946,83.946,0,0,0,245.76,340.054Z" transform="translate(-163.382 -246.028)" stroke="#707070" stroke-miterlimit="10" stroke-width="1" fill="url(#linear-gradient)"/>
            <path id="Path_22193" data-name="Path 22193" d="M246.1,317.962a86.336,86.336,0,0,0-4.987,8.538,25.311,25.311,0,0,0-2.143,6.244,19.282,19.282,0,0,0-.4,4.644,12.458,12.458,0,0,0,.344,2.352,12.228,12.228,0,0,0-1.2-2.047,13.224,13.224,0,0,0-3.25-3.2,19.809,19.809,0,0,0-5.8-2.67,38.56,38.56,0,0,0-9.463-1.13c-2.919-.044-5.09.126-5.09.126s.529.585,1.5,1.485c.931.917,2.46,2.081,4.057,3.45a46.377,46.377,0,0,0,5.843,4.039,25.592,25.592,0,0,0,7.186,3,7.75,7.75,0,0,0,5.169-.249,4.373,4.373,0,0,0,1.6-1.18,4.333,4.333,0,0,0,1.971.05,7.1,7.1,0,0,0,4.339-2.9,21.36,21.36,0,0,0,3.47-7.561,35.145,35.145,0,0,0,.927-8.227,37.311,37.311,0,0,0-.566-6.549c-.266-1.657-.506-2.666-.506-2.666S247.765,315.405,246.1,317.962Z" transform="translate(-167.474 -260.341)" stroke="#707070" stroke-miterlimit="10" stroke-width="1" fill="url(#linear-gradient)"/>
            <path id="Path_22194" data-name="Path 22194" d="M232.787,325.1a12.6,12.6,0,0,0,.768,2.255A12.171,12.171,0,0,0,232,325.564c-1.734-1.786-5.119-3.533-10.05-3.935a30.416,30.416,0,0,0-4.711.056c-1.63.145-3.29.423-4.723.693-2.881.554-4.98,1.166-4.98,1.166s.643.458,1.782,1.131l2.054,1.158c.751.46,1.6.948,2.543,1.44a41.1,41.1,0,0,0,6.576,2.749,24.806,24.806,0,0,0,7.559,1.564,7.826,7.826,0,0,0,5.037-1.28,4.231,4.231,0,0,0,1.321-1.467,4.445,4.445,0,0,0,1.96-.349,7.028,7.028,0,0,0,3.655-3.69,21.822,21.822,0,0,0,1.981-8.15,38.378,38.378,0,0,0-.792-8.223c-.251-1.28-.541-2.489-.832-3.578-.322-1.068-.683-1.993-.981-2.776-.608-1.564-1.054-2.5-1.054-2.5s-.923,2.118-2.027,4.947c-.56,1.421-1.133,2.995-1.713,4.618a49.951,49.951,0,0,0-1.521,4.794A23.166,23.166,0,0,0,232.787,325.1Z" transform="translate(-173.592 -273.319)" stroke="#707070" stroke-miterlimit="10" stroke-width="1" fill="url(#linear-gradient)"/>
            <path id="Path_22195" data-name="Path 22195" d="M212.72,312.589a37.1,37.1,0,0,0-9.071,2.624c-2.715,1.129-4.651,2.157-4.651,2.157s.726.315,1.983.74c1.3.384,2.95,1.074,5.014,1.633a52.354,52.354,0,0,0,6.974,1.38,25.206,25.206,0,0,0,7.75-.029,7.886,7.886,0,0,0,4.686-2.278,4.193,4.193,0,0,0,.994-1.7,4.52,4.52,0,0,0,1.854-.743,6.975,6.975,0,0,0,2.827-4.342,21.562,21.562,0,0,0,.257-8.353,32.886,32.886,0,0,0-2.417-7.912,35.933,35.933,0,0,0-3.047-5.875c-.915-1.4-1.545-2.226-1.545-2.226s-.473,2.257-.977,5.244a91.87,91.87,0,0,0-1.282,9.889,25.1,25.1,0,0,0,.519,6.553,19.925,19.925,0,0,0,1.436,4.447,12.444,12.444,0,0,0,1.224,2.041,12.223,12.223,0,0,0-1.9-1.423,12.9,12.9,0,0,0-4.223-1.688A20.081,20.081,0,0,0,212.72,312.589Z" transform="translate(-181.543 -284.401)" stroke="#707070" stroke-miterlimit="10" stroke-width="1" fill="url(#linear-gradient)"/>
            <path id="Path_22196" data-name="Path 22196" d="M202.414,297.836c7.267,7.067,13.456,5.354,13.456,5.354s1.626-2.9-1.467-6.764c-6.688-8.358-20.9-10.451-20.9-10.451S198.1,293.646,202.414,297.836Z" transform="translate(-186.66 -285.975)" stroke="#707070" stroke-miterlimit="10" stroke-width="1" fill="url(#linear-gradient)"/>
          </g>
          <path id="Path_22197" data-name="Path 22197" d="M182.75,542.2a18.237,18.237,0,0,1,9.967-15.1,138.116,138.116,0,0,0,39.506-226.524c-1.415-1.342-4.881-4.41-6.346-5.686" transform="translate(-182.75 -277.676)" fill="none" stroke="#707070" stroke-miterlimit="10" stroke-width="1"/>
        </g>
        <g id="Group_849" data-name="Group 849" transform="translate(0 0)">
          <g id="Group_842-2" data-name="Group 842" transform="translate(0)">
            <path id="Path_22186-2" data-name="Path 22186" d="M204.076,425.751a22.721,22.721,0,0,1,11.156-.84,12.356,12.356,0,0,1,2.273.7,12.432,12.432,0,0,1-1.84-1.5c-1.83-1.715-3.788-4.91-4.41-9.834a39.547,39.547,0,0,1,.332-9.49c.4-2.873.9-4.978.9-4.978s.5.6,1.249,1.68c.761,1.058,1.718,2.674,2.792,4.5a43.59,43.59,0,0,1,3.085,6.387,25.466,25.466,0,0,1,1.871,7.551,7.822,7.822,0,0,1-1.045,5.08,4.394,4.394,0,0,1-1.415,1.406,4.315,4.315,0,0,1-.251,1.956,7.056,7.056,0,0,1-3.526,3.829,21.435,21.435,0,0,1-8.011,2.278,36.476,36.476,0,0,1-8.281-.353,43.591,43.591,0,0,1-6.414-1.548c-1.61-.5-2.581-.888-2.581-.888s2.087-1.041,4.883-2.3A80.923,80.923,0,0,1,204.076,425.751Z" transform="translate(-123.683 -180.022)" stroke="#707070" stroke-miterlimit="10" stroke-width="1" fill="url(#linear-gradient-12)"/>
            <path id="Path_22187-2" data-name="Path 22187" d="M206.652,417.089a76.379,76.379,0,0,1,9.778-1.689,22.619,22.619,0,0,1,11.1,1.423,12.692,12.692,0,0,1,2.091,1.135,12.185,12.185,0,0,1-1.5-1.834c-1.452-2.041-2.709-5.588-2.342-10.513a40.81,40.81,0,0,1,2.247-9.229c.485-1.365.954-2.535,1.3-3.363l.6-1.342.869,1.91a52.136,52.136,0,0,1,1.821,4.976,40.973,40.973,0,0,1,1.73,6.874,25.425,25.425,0,0,1,.317,7.76,7.837,7.837,0,0,1-2.049,4.771,4.337,4.337,0,0,1-1.664,1.089,4.38,4.38,0,0,1-.643,1.869,7.034,7.034,0,0,1-4.219,3.039,21.425,21.425,0,0,1-8.318.624,38.014,38.014,0,0,1-8.048-2.02,49.5,49.5,0,0,1-5.968-2.817c-.74-.407-1.33-.753-1.734-1l-.6-.407,1.481-.365Z" transform="translate(-159.118 -187.59)" stroke="#707070" stroke-miterlimit="10" stroke-width="1" fill="url(#linear-gradient-12)"/>
            <path id="Path_22188-2" data-name="Path 22188" d="M225.905,402.352a27.552,27.552,0,0,1,6.455,1.489,20.9,20.9,0,0,1,4.116,2.153,12.608,12.608,0,0,1,1.83,1.523,12.159,12.159,0,0,1-1.114-2.091,12.607,12.607,0,0,1-.958-4.474,18.516,18.516,0,0,1,.8-6.306,41.205,41.205,0,0,1,4.035-8.576c1.494-2.477,2.836-4.248,2.836-4.248s.176.782.436,2.066a44.66,44.66,0,0,1,.805,5.234,43.149,43.149,0,0,1,.315,7.08,26.414,26.414,0,0,1-1.255,7.663,7.874,7.874,0,0,1-2.981,4.269,4.216,4.216,0,0,1-1.834.716,4.488,4.488,0,0,1-1.021,1.715,7,7,0,0,1-4.736,2.112,20.859,20.859,0,0,1-8.273-1.062,36.817,36.817,0,0,1-7.474-3.6,55.384,55.384,0,0,1-5.3-3.945,23.9,23.9,0,0,1-1.969-1.863s2.273-.1,5.346-.16A73.758,73.758,0,0,1,225.905,402.352Z" transform="translate(-187.564 -196.762)" stroke="#707070" stroke-miterlimit="10" stroke-width="1" fill="url(#linear-gradient-12)"/>
            <path id="Path_22189-2" data-name="Path 22189" d="M231.768,387.173a29.981,29.981,0,0,1,6.009,2.757,17.367,17.367,0,0,1,3.584,2.942,12.581,12.581,0,0,1,1.5,1.85,12.225,12.225,0,0,1-.691-2.261,14.486,14.486,0,0,1-.021-4.586,17.545,17.545,0,0,1,2.06-6.028,39.4,39.4,0,0,1,5.655-7.592c2-2.147,3.632-3.6,3.632-3.6s.046.79.013,2.114-.015,3.141-.245,5.286c-.4,4.25-1.267,9.683-3.881,14.269a7.825,7.825,0,0,1-3.765,3.578,4.244,4.244,0,0,1-1.946.336,4.446,4.446,0,0,1-1.34,1.471,7.046,7.046,0,0,1-5.074,1.128c-5.462-.535-10.745-4.1-14.483-7.715a44.8,44.8,0,0,1-4.412-4.916c-1-1.344-1.556-2.218-1.556-2.218s2.284.344,5.267.913A79.987,79.987,0,0,1,231.768,387.173Z" transform="translate(-207.534 -207.154)" stroke="#707070" stroke-miterlimit="10" stroke-width="1" fill="url(#linear-gradient-12)"/>
            <path id="Path_22190-2" data-name="Path 22190" d="M233.9,370.484c4.458,2.6,6.978,5.312,8.27,7.5a20.353,20.353,0,0,1,1.079,2.12,8.957,8.957,0,0,1-.2-2.361,16.16,16.16,0,0,1,4.107-9.99,37.844,37.844,0,0,1,7.071-6.31c2.375-1.7,4.255-2.794,4.255-2.794s-.1.78-.386,2.07c-.317,1.3-.714,3.085-1.307,5.128-.307,1.023-.674,2.112-1.11,3.236-.39,1.114-.84,2.257-1.375,3.406a28.807,28.807,0,0,1-4.178,6.567,7.771,7.771,0,0,1-4.391,2.749,4.3,4.3,0,0,1-1.979-.058,4.394,4.394,0,0,1-1.6,1.172,7.1,7.1,0,0,1-5.211.1,19.648,19.648,0,0,1-7.175-4.225,34.409,34.409,0,0,1-3.02-3.006c-.888-1.062-1.707-2.155-2.446-3.224a37.179,37.179,0,0,1-3.331-5.7c-.724-1.516-1.1-2.485-1.1-2.485s2.178.794,5,1.944A88.869,88.869,0,0,1,233.9,370.484Z" transform="translate(-218.392 -218.332)" stroke="#707070" stroke-miterlimit="10" stroke-width="1" fill="url(#linear-gradient-12)"/>
            <path id="Path_22191-2" data-name="Path 22191" d="M232.964,353.978a25.669,25.669,0,0,1,4.41,4.9,16.829,16.829,0,0,1,2.207,4.111,15.334,15.334,0,0,1,.6,2.3,10.405,10.405,0,0,1,.309-2.356A14.792,14.792,0,0,1,242.2,358.7a19.68,19.68,0,0,1,4.3-4.734,38.025,38.025,0,0,1,8.206-4.754c2.657-1.187,4.711-1.881,4.711-1.881s-.251.743-.776,1.948-1.373,2.875-2.323,4.756c-2.064,3.746-4.927,8.4-9.189,11.594a7.714,7.714,0,0,1-4.839,1.813,4.307,4.307,0,0,1-1.935-.452,4.36,4.36,0,0,1-1.8.828,7.128,7.128,0,0,1-5.138-.95c-4.755-2.636-8.279-7.984-10.274-12.788a38.2,38.2,0,0,1-2.106-6.26c-.415-1.631-.6-2.659-.6-2.659s1.981,1.216,4.526,2.916A87.533,87.533,0,0,1,232.964,353.978Z" transform="translate(-220.443 -230.883)" stroke="#707070" stroke-miterlimit="10" stroke-width="1" fill="url(#linear-gradient-12)"/>
            <path id="Path_22192-2" data-name="Path 22192" d="M229,340.054a25.37,25.37,0,0,1,3.35,5.692,18.735,18.735,0,0,1,1.323,4.47,12.5,12.5,0,0,1,.133,2.371,12.218,12.218,0,0,1,.772-2.246,13.416,13.416,0,0,1,2.539-3.788,19.755,19.755,0,0,1,5.142-3.773,38.794,38.794,0,0,1,9.007-3c2.836-.627,4.985-.892,4.985-.892s-.394.68-1.145,1.755c-.722,1.081-1.935,2.537-3.246,4.186a46.939,46.939,0,0,1-4.906,5.115,25.683,25.683,0,0,1-6.443,4.383,7.7,7.7,0,0,1-5.1.8,4.381,4.381,0,0,1-1.809-.834,4.311,4.311,0,0,1-1.921.448,7.162,7.162,0,0,1-4.848-1.966,21.3,21.3,0,0,1-4.91-6.713,34.729,34.729,0,0,1-2.558-7.891,40.644,40.644,0,0,1-.788-6.553c-.085-1.684-.062-2.726-.062-2.726s1.7,1.593,3.856,3.771A83.949,83.949,0,0,1,229,340.054Z" transform="translate(-213.538 -246.028)" stroke="#707070" stroke-miterlimit="10" stroke-width="1" fill="url(#linear-gradient-12)"/>
            <path id="Path_22193-2" data-name="Path 22193" d="M218.2,317.962a86.33,86.33,0,0,1,4.987,8.538,25.311,25.311,0,0,1,2.143,6.244,19.282,19.282,0,0,1,.4,4.644,12.462,12.462,0,0,1-.344,2.352,12.223,12.223,0,0,1,1.2-2.047,13.224,13.224,0,0,1,3.25-3.2,19.809,19.809,0,0,1,5.8-2.67,38.56,38.56,0,0,1,9.463-1.13c2.919-.044,5.09.126,5.09.126s-.529.585-1.5,1.485c-.931.917-2.46,2.081-4.057,3.45a46.377,46.377,0,0,1-5.843,4.039,25.592,25.592,0,0,1-7.186,3,7.75,7.75,0,0,1-5.169-.249,4.373,4.373,0,0,1-1.6-1.18,4.333,4.333,0,0,1-1.971.05,7.1,7.1,0,0,1-4.338-2.9,21.361,21.361,0,0,1-3.47-7.561,35.145,35.145,0,0,1-.927-8.227,37.314,37.314,0,0,1,.566-6.549c.266-1.657.506-2.666.506-2.666S216.533,315.405,218.2,317.962Z" transform="translate(-198.988 -260.341)" stroke="#707070" stroke-miterlimit="10" stroke-width="1" fill="url(#linear-gradient-12)"/>
            <path id="Path_22194-2" data-name="Path 22194" d="M216.77,325.1A12.592,12.592,0,0,1,216,327.35a12.173,12.173,0,0,1,1.552-1.786c1.734-1.786,5.119-3.533,10.05-3.935a30.416,30.416,0,0,1,4.711.056c1.63.145,3.29.423,4.723.693,2.881.554,4.98,1.166,4.98,1.166s-.643.458-1.782,1.131l-2.054,1.158c-.751.46-1.6.948-2.543,1.44a41.1,41.1,0,0,1-6.576,2.749,24.806,24.806,0,0,1-7.559,1.564,7.827,7.827,0,0,1-5.037-1.28,4.231,4.231,0,0,1-1.321-1.467,4.445,4.445,0,0,1-1.96-.349,7.028,7.028,0,0,1-3.655-3.69,21.822,21.822,0,0,1-1.981-8.15,38.379,38.379,0,0,1,.792-8.223c.251-1.28.541-2.489.832-3.578.322-1.068.683-1.993.981-2.776.608-1.564,1.054-2.5,1.054-2.5s.923,2.118,2.027,4.947c.56,1.421,1.133,2.995,1.713,4.618a49.951,49.951,0,0,1,1.521,4.794A23.166,23.166,0,0,1,216.77,325.1Z" transform="translate(-178.13 -273.319)" stroke="#707070" stroke-miterlimit="10" stroke-width="1" fill="url(#linear-gradient-12)"/>
            <path id="Path_22195-2" data-name="Path 22195" d="M217.9,312.589a37.1,37.1,0,0,1,9.071,2.624c2.715,1.129,4.651,2.157,4.651,2.157s-.726.315-1.983.74c-1.3.384-2.95,1.074-5.014,1.633a52.354,52.354,0,0,1-6.974,1.38,25.206,25.206,0,0,1-7.75-.029,7.886,7.886,0,0,1-4.686-2.278,4.193,4.193,0,0,1-.994-1.7,4.52,4.52,0,0,1-1.854-.743,6.975,6.975,0,0,1-2.827-4.342,21.562,21.562,0,0,1-.257-8.353,32.886,32.886,0,0,1,2.417-7.912,35.931,35.931,0,0,1,3.047-5.875c.915-1.4,1.545-2.226,1.545-2.226s.473,2.257.977,5.244a91.866,91.866,0,0,1,1.282,9.889,25.1,25.1,0,0,1-.519,6.553,19.925,19.925,0,0,1-1.436,4.447,12.442,12.442,0,0,1-1.224,2.041,12.224,12.224,0,0,1,1.9-1.423,12.9,12.9,0,0,1,4.223-1.688A20.081,20.081,0,0,1,217.9,312.589Z" transform="translate(-151.24 -284.401)" stroke="#707070" stroke-miterlimit="10" stroke-width="1" fill="url(#linear-gradient-12)"/>
            <path id="Path_22196-2" data-name="Path 22196" d="M207.384,297.836c-7.267,7.067-13.456,5.354-13.456,5.354s-1.626-2.9,1.467-6.764c6.688-8.358,20.9-10.451,20.9-10.451S211.7,293.646,207.384,297.836Z" transform="translate(-125.302 -285.975)" stroke="#707070" stroke-miterlimit="10" stroke-width="1" fill="url(#linear-gradient-12)"/>
          </g>
          <path id="Path_22197-2" data-name="Path 22197" d="M275.247,542.2a18.237,18.237,0,0,0-9.967-15.1,138.116,138.116,0,0,1-39.506-226.524c1.415-1.342,4.881-4.41,6.346-5.686" transform="translate(-163.495 -277.676)" fill="none" stroke="#707070" stroke-miterlimit="10" stroke-width="1"/>
        </g>
      </g>
    </g>
    <g id="Group_850" data-name="Group 850" transform="translate(218.481 5050.808)">
      <path id="Path_22210" data-name="Path 22210" d="M155.4,45.332s16.267-1.2,17.006,17.992c.676,17.565.091,203.6-.009,235.159a16.938,16.938,0,0,0,3.58,10.485c4.581,5.867,13.619,12.565,27.529,2.146,7.562-5.664,4.542-23.091,4.542-23.091H346.968V59.384s-2.65-14.111-19.684-14.078C314.019,45.331,155.4,45.332,155.4,45.332Z" transform="translate(-11.932 -0.044)" fill="#0c2d72"/>
      <path id="Path_22211" data-name="Path 22211" d="M124.519,84.328V60.092s3.889-14.7,18.946-14.8,17.223,14.8,17.223,14.8V84.02Z" transform="translate(0 0)" fill="#1b6195"/>
      <path id="Path_22212" data-name="Path 22212" d="M216.728,469s19.2-2.248,15.258-28.113H405.244s6.158,26.521-14.808,28.538C383.117,470.133,216.728,469,216.728,469Z" transform="translate(-35.874 -152.912)" fill="#1b6195"/>
    </g>
  </g>
</svg>
