<svg xmlns="http://www.w3.org/2000/svg" width="228.306" height="569.39" viewBox="0 0 228.306 569.39"><defs><style>.a{opacity:0.671;isolation:isolate;}.b,.c{fill:none;}.b{stroke:#4e4e4e;stroke-miterlimit:10;}</style></defs><g class="a" transform="matrix(1, 0.017, -0.017, 1, 3.688, 2.31)"><g transform="translate(0 0)"><path class="b" d="M0,0Z" transform="translate(101.272 402.928)"/><path class="b" d="M94.567,75.943,5.52,236.547,0,0Z" transform="translate(6.705 326.985)"/><path class="b" d="M93.628,99.665,89.56,0,0,24.26Z" transform="translate(7.644 303.263)"/><path class="b" d="M92.2,58.545,0,0,2.345,82.894Z" transform="translate(5.008 244.718)"/><path class="b" d="M92.111,98.708,211.916,0,0,39.84Z" transform="translate(5.093 204.555)"/><path class="b" d="M211.688,48,90.515,0,0,87.9Z" transform="translate(5.321 156.409)"/><path class="b" d="M90.071,0,0,34.625.589,86.842Z" transform="translate(4.257 157.445)"/><path class="b" d="M119.805,0,85.9,120.109,0,98.708Z" transform="translate(97.204 204.555)"/><path class="b" d="M85.9,21.4,4.067,99.665,0,0Z" transform="translate(97.204 303.263)"/><g transform="translate(0.532 0.376)"><path class="b" d="M90.957,42.92,41.922,0,0,78.323Z" transform="translate(4.049 113.125)"/><path class="b" d="M45.971,113.126,0,0,3.682,191.038Z" transform="translate(0 0)"/></g><path class="c" d="M6.229,67.316,0,0,29.946,43.946Z" transform="translate(200.312 321.219)"/><path class="c" d="M0,44.617,45.507,0,31.774,56.232Z" transform="translate(180.312 448.011)"/><g transform="translate(0 0)"><path class="b" d="M0,0Z"/></g></g></g></svg>