<svg xmlns="http://www.w3.org/2000/svg" width="273.08" height="1002.68" viewBox="0 0 273.08 1002.68">
  <path id="Path_22179" data-name="Path 22179" d="M-411.35-99.18v38c0,19-8.36,25.84-21.66,25.84s-21.66-6.84-21.66-25.84V-204.82c0-19,8.36-26.22,21.66-26.22s21.66,7.22,21.66,26.22v28.5h39.52v-25.84c0-42.56-21.28-66.88-62.32-66.88s-62.32,24.32-62.32,66.88V-63.84c0,42.56,21.28,66.88,62.32,66.88s62.32-24.32,62.32-66.88V-99.18Zm103.36-105.64c0-19,8.36-26.22,21.66-26.22s21.66,7.22,21.66,26.22V-61.18c0,19-8.36,26.22-21.66,26.22s-21.66-7.22-21.66-26.22Zm-41.8,140.98c0,42.56,22.42,66.88,63.46,66.88s63.46-24.32,63.46-66.88V-202.16c0-42.56-22.42-66.88-63.46-66.88s-63.46,24.32-63.46,66.88ZM-106.59,0h42.94V-266h-37.24v159.22L-143.83-266h-52.44V0h37.62V-192.66Zm60.8-228h43.7V0h41.8V-228h43.7v-38H-45.79Zm225.72-38H118.75L76.19,0h38.38l7.22-48.26h51.3L180.31,0h42.18Zm-32.68,47.12L167.39-84.36H127.11ZM323.19-99.18v38c0,19-8.36,25.84-21.66,25.84s-21.66-6.84-21.66-25.84V-204.82c0-19,8.36-26.22,21.66-26.22s21.66,7.22,21.66,26.22v28.5h39.52v-25.84c0-42.56-21.28-66.88-62.32-66.88s-62.32,24.32-62.32,66.88V-63.84c0,42.56,21.28,66.88,62.32,66.88s62.32-24.32,62.32-66.88V-99.18ZM376.01-228h43.7V0h41.8V-228h43.7v-38H376.01Z" transform="translate(3.54 496.97) rotate(90)" fill="none" stroke="#000" stroke-width="1" opacity="0.513"/>
</svg>
