<svg xmlns="http://www.w3.org/2000/svg" width="1013.401" height="157.77" viewBox="0 0 1013.401 157.77">
  <g id="Group_830" data-name="Group 830" transform="translate(-906.979 -5430.462)">
    <g id="Group_545" data-name="Group 545" transform="translate(906.979 5557.902)">
      <g id="Group_542" data-name="Group 542" transform="translate(0 8.145)">
        <path id="Path_9987" data-name="Path 9987" d="M5.035,726.015-16.841,704.14l-21.876,21.876Z" transform="translate(38.717 -704.14)" fill="#643e7f"/>
      </g>
      <g id="Group_543" data-name="Group 543" transform="translate(16.361)">
        <path id="Path_9988" data-name="Path 9988" d="M28.8,730.437l-30.02-30.02-30.021,30.02Z" transform="translate(31.24 -700.417)" fill="#f0b82d"/>
      </g>
      <g id="Group_544" data-name="Group 544" transform="translate(55.878 7.968)">
        <path id="Path_9989" data-name="Path 9989" d="M30.925,726.11,8.874,704.059l-22.053,22.052Z" transform="translate(13.179 -704.059)" fill="#b02d5b"/>
      </g>
    </g>
    <g id="Group_829" data-name="Group 829">
      <g id="Group_555" data-name="Group 555" transform="translate(1031.525 5520.399)">
        <g id="Group_547" data-name="Group 547" transform="translate(43.026)">
          <g id="Group_546" data-name="Group 546">
            <ellipse id="Ellipse_143" data-name="Ellipse 143" cx="9.678" cy="25.482" rx="9.678" ry="25.482" fill="#b02d5b"/>
          </g>
        </g>
        <g id="Group_549" data-name="Group 549" transform="translate(21.513)">
          <g id="Group_548" data-name="Group 548">
            <path id="Path_9990" data-name="Path 9990" d="M37.717,683.277a38.386,38.386,0,0,1,0,50.963,38.38,38.38,0,0,1,0-50.963Z" transform="translate(-28.037 -683.277)" fill="#f0b82d"/>
          </g>
        </g>
        <g id="Group_551" data-name="Group 551" transform="translate(0)">
          <g id="Group_550" data-name="Group 550">
            <path id="Path_9991" data-name="Path 9991" d="M27.883,683.277a38.266,38.266,0,0,1,9.678,25.482,38.265,38.265,0,0,1-9.678,25.482,38.386,38.386,0,0,1,0-50.963Z" transform="translate(-18.205 -683.277)" fill="#643e7f"/>
          </g>
        </g>
        <g id="Group_552" data-name="Group 552" transform="translate(8.903 24.707)">
          <path id="Path_9992" data-name="Path 9992" d="M23.049,735.249a.775.775,0,0,0,.775-.775V695.344a.775.775,0,0,0-1.549,0v39.131A.773.773,0,0,0,23.049,735.249Z" transform="translate(-22.274 -694.569)" fill="#b02d5b"/>
        </g>
        <g id="Group_553" data-name="Group 553" transform="translate(30.416 24.707)">
          <path id="Path_9993" data-name="Path 9993" d="M32.881,735.249a.773.773,0,0,0,.775-.775V695.344a.775.775,0,0,0-1.549,0v39.131A.775.775,0,0,0,32.881,735.249Z" transform="translate(-32.106 -694.569)" fill="#643e7f"/>
        </g>
        <g id="Group_554" data-name="Group 554" transform="translate(51.93 24.707)">
          <path id="Path_9994" data-name="Path 9994" d="M42.714,735.249a.775.775,0,0,0,.775-.775V695.344a.775.775,0,0,0-1.549,0v39.131A.773.773,0,0,0,42.714,735.249Z" transform="translate(-41.939 -694.569)" fill="#b02d5b"/>
        </g>
      </g>
      <g id="Group_561" data-name="Group 561" transform="translate(907.605 5480.419)">
        <g id="Group_556" data-name="Group 556" transform="translate(122.467)">
          <path id="Path_9995" data-name="Path 9995" d="M19.721,665.386l2.5,2.553,2.5-2.553a1.271,1.271,0,1,1,1.816,1.779l-3.4,3.481a1.271,1.271,0,0,1-1.818,0L17.9,667.165a1.272,1.272,0,1,1,1.818-1.779Z" transform="translate(-17.541 -665.005)" fill="#009ed9"/>
        </g>
        <g id="Group_557" data-name="Group 557" transform="translate(24.418 26.499)">
          <path id="Path_9996" data-name="Path 9996" d="M-25.089,677.5l2.5,2.553,2.5-2.553a1.274,1.274,0,0,1,1.8-.02,1.274,1.274,0,0,1,.02,1.8l-3.407,3.483a1.271,1.271,0,0,1-.91.381,1.266,1.266,0,0,1-.908-.381l-3.407-3.483a1.27,1.27,0,0,1,.02-1.8A1.274,1.274,0,0,1-25.089,677.5Z" transform="translate(27.271 -677.115)" fill="#009ed9"/>
        </g>
        <g id="Group_558" data-name="Group 558" transform="translate(85.142 24.303)">
          <path id="Path_9997" data-name="Path 9997" d="M2.662,676.5l2.5,2.551,2.5-2.551a1.271,1.271,0,0,1,1.816,1.779l-3.4,3.481a1.273,1.273,0,0,1-1.82,0L.844,678.274A1.272,1.272,0,0,1,2.662,676.5Z" transform="translate(-0.482 -676.112)" fill="#009ed9"/>
        </g>
        <g id="Group_559" data-name="Group 559" transform="translate(96.653 40.776)">
          <path id="Path_9998" data-name="Path 9998" d="M7.925,684.024l2.5,2.551,2.5-2.551a1.272,1.272,0,1,1,1.818,1.779l-3.407,3.481a1.27,1.27,0,0,1-1.818,0L6.106,685.8a1.272,1.272,0,1,1,1.818-1.779Z" transform="translate(-5.743 -683.641)" fill="#009ed9"/>
        </g>
        <g id="Group_560" data-name="Group 560" transform="translate(0 48.607)">
          <path id="Path_9999" data-name="Path 9999" d="M-36.249,687.6l2.5,2.553,2.5-2.553a1.27,1.27,0,0,1,1.8-.02,1.274,1.274,0,0,1,.02,1.8l-3.407,3.481a1.273,1.273,0,0,1-.91.383,1.268,1.268,0,0,1-.908-.383l-3.407-3.481a1.27,1.27,0,0,1,.02-1.8A1.27,1.27,0,0,1-36.249,687.6Z" transform="translate(38.431 -687.22)" fill="#009ed9"/>
        </g>
      </g>
      <path id="Path_10000" data-name="Path 10000" d="M202.993,690.531a11.076,11.076,0,0,1,4.536.974,7.988,7.988,0,0,1,15.951.033,12.53,12.53,0,0,1,3.831-.6,12.88,12.88,0,0,1,12.52,10.334h-48.1A11.4,11.4,0,0,1,202.993,690.531Z" transform="translate(1219.467 4837.962)" fill="#fff"/>
      <path id="Path_10001" data-name="Path 10001" d="M185.444,680.407a6.4,6.4,0,0,1,2.619.562,4.608,4.608,0,0,1,9.2.02,7.258,7.258,0,0,1,2.212-.346,7.431,7.431,0,0,1,7.223,5.965H178.943A6.581,6.581,0,0,1,185.444,680.407Z" transform="translate(1204.279 4829.227)" fill="#fff"/>
      <g id="Group_565" data-name="Group 565" transform="translate(1361.458 5543.952)">
        <g id="Group_562" data-name="Group 562" transform="translate(0 11.929)">
          <path id="Path_10002" data-name="Path 10002" d="M233.08,731.534l-32.041-32.041L169,731.535Z" transform="translate(-168.996 -699.493)" fill="#643e7f"/>
        </g>
        <g id="Group_563" data-name="Group 563" transform="translate(23.963)">
          <path id="Path_10003" data-name="Path 10003" d="M267.89,738.011l-43.97-43.97-43.972,43.971Z" transform="translate(-179.948 -694.041)" fill="#f0b82d"/>
        </g>
        <g id="Group_564" data-name="Group 564" transform="translate(81.844 11.671)">
          <path id="Path_10004" data-name="Path 10004" d="M271,731.674l-32.3-32.3-32.3,32.3Z" transform="translate(-206.402 -699.375)" fill="#b02d5b"/>
        </g>
      </g>
      <path id="Path_10005" data-name="Path 10005" d="M428.648,667.954h48.928V765.81H379.72V667.954Z" transform="translate(1442.804 4818.919)" fill="#643e7f"/>
      <g id="Group_574" data-name="Group 574" transform="translate(1708.334 5511.345)">
        <g id="Group_567" data-name="Group 567" transform="translate(129.644 46.635)">
          <g id="Group_566" data-name="Group 566">
            <path id="Path_10006" data-name="Path 10006" d="M394.911,702.777h-6.967a1.162,1.162,0,0,1,0-2.324h6.967a1.162,1.162,0,1,1,0,2.324Z" transform="translate(-386.783 -700.453)" fill="#009ed9"/>
          </g>
        </g>
        <g id="Group_572" data-name="Group 572">
          <g id="Group_569" data-name="Group 569" transform="translate(145.612 39.747)">
            <g id="Group_568" data-name="Group 568">
              <path id="Path_10007" data-name="Path 10007" d="M402.212,699.627h-6.967a1.161,1.161,0,1,1,0-2.322h6.967a1.161,1.161,0,1,1,0,2.322Z" transform="translate(-394.081 -697.305)" fill="#009ed9"/>
            </g>
          </g>
          <g id="Group_571" data-name="Group 571">
            <path id="Path_10008" data-name="Path 10008" d="M422.2,679.139H405.737c-29.107,0-34.52,15.108-45.721,22.366-7.938,5.146-14.513,5.687-18.788,6.735a17.208,17.208,0,0,0-11.343,8.717c-1.6,3.1-2.354,10.36-2.354,13.857,0,4.02,2.7,5.621,5.295,5.621H455.131c2.6,0,3.892-3.12,4.116-5.693.354-4.1.895-11.986,0-16.1C456.306,701.118,445.574,679.139,422.2,679.139Z" transform="translate(-327.531 -679.139)" fill="#b02d5b"/>
            <path id="Path_10009" data-name="Path 10009" d="M402.129,714.883c0-10.577-7.881-17.6-17.6-17.6s-17.6,7.026-17.6,17.6Z" transform="translate(-280.738 -657.587)" fill="#96214a"/>
            <path id="Path_10010" data-name="Path 10010" d="M371.934,713a13.793,13.793,0,1,0,13.8-13.793A13.791,13.791,0,0,0,371.934,713Z" transform="translate(-274.78 -655.301)" fill="#643e7f"/>
            <path id="Path_10011" data-name="Path 10011" d="M374,710.542a9.268,9.268,0,1,0,9.271-9.271A9.269,9.269,0,0,0,374,710.542Z" transform="translate(-272.323 -652.846)" fill="#009ed9"/>
            <path id="Path_10012" data-name="Path 10012" d="M368.237,714.883c0-10.577-7.883-17.6-17.6-17.6s-17.6,7.026-17.6,17.6Z" transform="translate(-321.002 -657.587)" fill="#96214a"/>
            <path id="Path_10013" data-name="Path 10013" d="M331.192,713a13.793,13.793,0,1,0,13.8-13.793A13.793,13.793,0,0,0,331.192,713Z" transform="translate(-323.182 -655.301)" fill="#643e7f"/>
            <path id="Path_10014" data-name="Path 10014" d="M333.26,710.542a9.27,9.27,0,1,0,9.271-9.271A9.269,9.269,0,0,0,333.26,710.542Z" transform="translate(-320.725 -652.846)" fill="#009ed9"/>
            <g id="Group_570" data-name="Group 570" transform="translate(1.451 33.17)">
              <path id="Path_10015" data-name="Path 10015" d="M387.808,696.978a2.954,2.954,0,0,1,1.8,3.092v.374a3.073,3.073,0,0,1-2.044,3.118C387.668,701.4,387.887,699.076,387.808,696.978Z" transform="translate(-257.665 -691.116)" fill="#f0b82d"/>
              <path id="Path_10016" data-name="Path 10016" d="M334.609,694.888a3.4,3.4,0,0,1,1.343,4.608l-1.339,2.437a3.4,3.4,0,0,1-4.608,1.339l-.339-.186a3.341,3.341,0,0,1-1.473-1.641,13.023,13.023,0,0,1,.9-2.472,16.525,16.525,0,0,1,3.645-4.674,3.367,3.367,0,0,1,1.527.4Z" transform="translate(-328.194 -694.299)" fill="#f0b82d"/>
            </g>
            <path id="Path_10017" data-name="Path 10017" d="M376.23,681s-21.572,2.1-31.577,21.489H376.23Z" transform="translate(-307.19 -676.927)" fill="#009ed9"/>
            <rect id="Rectangle_143" data-name="Rectangle 143" width="25.563" height="22.919" transform="translate(71.685 2.644)" fill="#009ed9"/>
            <path id="Path_10018" data-name="Path 10018" d="M373.588,681V702.49h19.629C401.36,702.49,386.812,681.644,373.588,681Z" transform="translate(-272.815 -676.927)" fill="#009ed9"/>
            <path id="Path_10019" data-name="Path 10019" d="M355.229,694.121a.882.882,0,0,0,.88.882h6.133a.877.877,0,0,0,.873-.882h0a.879.879,0,0,0-.873-.882h-6.133a.883.883,0,0,0-.88.882Z" transform="translate(-294.625 -662.388)" fill="#009ed9"/>
            <path id="Path_10020" data-name="Path 10020" d="M368.444,694.121a.88.88,0,0,0,.877.882h6.133a.879.879,0,0,0,.875-.882h0a.881.881,0,0,0-.875-.882h-6.133a.881.881,0,0,0-.877.882Z" transform="translate(-278.926 -662.388)" fill="#009ed9"/>
            <path id="Path_10021" data-name="Path 10021" d="M343.373,690.241c0-.573,1.158-.14,1.925-.14h8.608c.768,0,.925-.433.925.14V694.3c0,.573-.158,1.092-.925,1.092H345.3c-.768,0-1.925-.519-1.925-1.092Z" transform="translate(-308.711 -666.302)" fill="#643e7f"/>
          </g>
        </g>
      </g>
      <g id="Group_586" data-name="Group 586" transform="translate(1753.836 5548.325)">
        <g id="Group_581" data-name="Group 581">
          <g id="Group_576" data-name="Group 576" transform="translate(0)">
            <path id="Path_10022" data-name="Path 10022" d="M373.728,696.338a1.091,1.091,0,0,0-.748-.3h-5.919v9.647h2.111V701.88h3.341a1.459,1.459,0,0,0,1.5-1.015.948.948,0,0,0,.02-.195v-3.612A1,1,0,0,0,373.728,696.338Zm-1.805,3.512h-2.75v-1.777h2.75Z" transform="translate(-367.061 -696.04)" fill="#fff"/>
          </g>
          <g id="Group_577" data-name="Group 577" transform="translate(7.673)">
            <path id="Path_10023" data-name="Path 10023" d="M370.51,700.865a1.137,1.137,0,0,0,.02-.195v-3.612a1,1,0,0,0-.309-.72,1.091,1.091,0,0,0-.748-.3h-5.919v9.647h2.111v-3.319l2.315,3.319h2.549l-2.654-3.807h1.131A1.46,1.46,0,0,0,370.51,700.865Zm-2.094-1.015h-2.75v-1.777h2.75Z" transform="translate(-363.554 -696.04)" fill="#b02d5b"/>
          </g>
          <g id="Group_578" data-name="Group 578" transform="translate(15.347)">
            <path id="Path_10024" data-name="Path 10024" d="M367.02,697.112v-.055a1,1,0,0,0-.311-.72,1.086,1.086,0,0,0-.746-.3H361.1a1.037,1.037,0,0,0-1.057,1.017v5.286c0,.7.007,1.984.009,2.271v.057a.989.989,0,0,0,.311.718,1.062,1.062,0,0,0,.746.3h4.866a1.035,1.035,0,0,0,1.055-1.015v-5.328C367.028,698.63,367.022,697.39,367.02,697.112Zm-2.1,6.544h-2.761v-5.584h2.761Z" transform="translate(-360.042 -696.04)" fill="#009ed9"/>
          </g>
          <g id="Group_579" data-name="Group 579" transform="translate(23.033)">
            <path id="Path_10025" data-name="Path 10025" d="M356.534,696.04v2.033h2.433v7.614h2.111v-7.614h2.431V696.04Z" transform="translate(-356.534 -696.04)" fill="#fff"/>
          </g>
          <g id="Group_580" data-name="Group 580" transform="translate(30.707)">
            <path id="Path_10026" data-name="Path 10026" d="M360,698.073V696.04h-6.98v9.647H360v-2.03h-4.864V701.88h2.75v-2.03h-2.75v-1.777Z" transform="translate(-353.025 -696.04)" fill="#643e7f"/>
          </g>
        </g>
        <g id="Group_584" data-name="Group 584" transform="translate(38.286 0.048)">
          <g id="Group_582" data-name="Group 582" transform="translate(0)">
            <path id="Path_10027" data-name="Path 10027" d="M353.69,706.079c.05-.033,1.243-.775,2.547-1.755a4.5,4.5,0,0,0,1.755-3.372v-4.89H348.34v4.89a4.5,4.5,0,0,0,1.755,3.372c1.306.98,2.5,1.722,2.547,1.755l.523.322Zm2.367-8.159v3.024a2.63,2.63,0,0,1-1.013,1.921c-.724.543-1.422,1.017-1.877,1.315-.455-.3-1.155-.772-1.879-1.315a2.633,2.633,0,0,1-1.011-1.912V697.92Z" transform="translate(-348.34 -696.062)" fill="#b02d5b"/>
          </g>
          <g id="Group_583" data-name="Group 583" transform="translate(6.064 7.283)">
            <path id="Path_10028" data-name="Path 10028" d="M350.56,702.885l-2.233-2.2,1.383-1.3,2.233,2.2Z" transform="translate(-348.327 -699.39)" fill="#b02d5b"/>
          </g>
        </g>
        <g id="Group_585" data-name="Group 585" transform="translate(0.232 12.618)">
          <path id="Path_10029" data-name="Path 10029" d="M369.607,703.377c0,.026.007.035.037.035h.112c.031,0,.039-.009.039-.035v-.586h.4c.289,0,.58-.125.58-.492s-.291-.475-.58-.475h-.556c-.026,0-.037,0-.037.035Zm.188-1.4h.394c.328,0,.409.16.409.32s-.081.339-.409.339H369.8Z" transform="translate(-369.607 -701.787)" fill="#272829"/>
          <path id="Path_10030" data-name="Path 10030" d="M368.477,703.4c-.011.02,0,.035.022.035h.136c.026,0,.035-.009.05-.035l.184-.387h.825l.184.387c.013.026.024.035.046.035h.138c.022,0,.033-.015.022-.035l-.77-1.56c-.009-.018-.017-.031-.028-.031h-.007c-.015,0-.02.013-.031.031Zm.455-.54.348-.74h0l.346.74Z" transform="translate(-366.434 -701.807)" fill="#272829"/>
          <path id="Path_10031" data-name="Path 10031" d="M368,703.412c.028,0,.037-.009.037-.035v-1.518c0-.024-.009-.035-.037-.035h-.112c-.028,0-.039.011-.039.035v1.518c0,.026.011.035.039.035Z" transform="translate(-363.031 -701.787)" fill="#272829"/>
          <path id="Path_10032" data-name="Path 10032" d="M366.606,703.393c0,.026.009.035.035.035h.112c.028,0,.037-.009.037-.035v-1.221l1.1,1.269a.055.055,0,0,0,.035.015h.011c.015,0,.02,0,.02-.015v-1.567c0-.028-.007-.035-.035-.035H367.8c-.028,0-.037.007-.037.035v1.212l-1.1-1.258a.033.033,0,0,0-.031-.017h-.013c-.015,0-.017,0-.017.017Z" transform="translate(-360.215 -701.802)" fill="#272829"/>
          <path id="Path_10033" data-name="Path 10033" d="M366.041,703.377c0,.026.009.035.037.035h.116c.026,0,.035-.009.035-.035v-1.389h.567c.028,0,.033-.009.033-.037v-.092c0-.024,0-.035-.033-.035h-1.317c-.029,0-.037.011-.037.035v.092c0,.028.007.037.037.037h.562Z" transform="translate(-356.54 -701.787)" fill="#272829"/>
          <path id="Path_10034" data-name="Path 10034" d="M363.695,703.377c0,.026.009.035.039.035h.109c.031,0,.039-.009.039-.035v-.586h.4c.287,0,.58-.125.58-.492s-.293-.475-.58-.475h-.554c-.031,0-.039,0-.039.035Zm.188-1.4h.394c.328,0,.409.16.409.32s-.081.339-.409.339h-.394Z" transform="translate(-350.759 -701.787)" fill="#272829"/>
          <path id="Path_10035" data-name="Path 10035" d="M362.58,703.377c0,.031.011.035.039.035h.109c.029,0,.039-.009.039-.035v-.586h.422l.433.586a.079.079,0,0,0,.063.035h.112c.028,0,.046-.013.028-.044l-.444-.6a.444.444,0,0,0,.372-.468c0-.367-.306-.477-.575-.477h-.56c-.028,0-.039.011-.039.035Zm.188-1.4h.4c.243,0,.4.1.4.322,0,.206-.123.337-.4.337h-.4Z" transform="translate(-347.285 -701.787)" fill="#272829"/>
          <path id="Path_10036" data-name="Path 10036" d="M362.151,703.456a.823.823,0,1,0-.845-.823A.837.837,0,0,0,362.151,703.456Zm0-.158a.664.664,0,1,1,.659-.665A.674.674,0,0,1,362.151,703.3Z" transform="translate(-343.662 -701.802)" fill="#272829"/>
          <path id="Path_10037" data-name="Path 10037" d="M360.816,703.377c0,.026.007.035.037.035h.114c.028,0,.033-.009.033-.035v-1.389h.567c.031,0,.037-.009.037-.037v-.092c0-.024,0-.035-.037-.035h-1.315c-.028,0-.037.011-.037.035v.092c0,.028.007.037.037.037h.564Z" transform="translate(-339.878 -701.787)" fill="#272829"/>
          <path id="Path_10038" data-name="Path 10038" d="M359.177,703.377c0,.026.011.035.037.035h1.05c.028,0,.035-.009.035-.035v-.085c0-.028-.007-.035-.035-.035h-.9v-.567h.86c.028,0,.037-.011.037-.037v-.083c0-.028-.009-.039-.037-.039h-.86v-.549h.9c.026,0,.035-.009.035-.035v-.087c0-.024-.009-.035-.035-.035h-1.05c-.026,0-.037.011-.037.035Z" transform="translate(-336.306 -701.787)" fill="#272829"/>
          <path id="Path_10039" data-name="Path 10039" d="M359.364,703.1a.029.029,0,0,0-.026-.013.041.041,0,0,0-.026.011.687.687,0,0,1-.5.2.664.664,0,0,1,0-1.328.694.694,0,0,1,.495.2.028.028,0,0,0,.024.016.03.03,0,0,0,.028-.016l.068-.072c.02-.02.022-.033,0-.05a.915.915,0,0,0-.617-.234.823.823,0,1,0,0,1.645.924.924,0,0,0,.617-.232c.022-.022.022-.033,0-.055Z" transform="translate(-332.815 -701.802)" fill="#272829"/>
          <path id="Path_10040" data-name="Path 10040" d="M357.472,703.377c0,.026.007.035.035.035h.114c.029,0,.037-.009.037-.035v-1.389h.564c.028,0,.037-.009.037-.037v-.092c0-.024,0-.035-.037-.035H356.9c-.026,0-.035.011-.035.035v.092c0,.028,0,.037.035.037h.567Z" transform="translate(-329.218 -701.787)" fill="#272829"/>
          <path id="Path_10041" data-name="Path 10041" d="M356.4,703.412c.028,0,.035-.009.035-.035v-1.518c0-.024-.007-.035-.035-.035h-.114c-.028,0-.037.011-.037.035v1.518c0,.026.009.035.037.035Z" transform="translate(-326.051 -701.787)" fill="#272829"/>
          <path id="Path_10042" data-name="Path 10042" d="M355.754,703.456a.823.823,0,1,0-.847-.823A.835.835,0,0,0,355.754,703.456Zm0-.158a.664.664,0,1,1,.656-.665A.673.673,0,0,1,355.754,703.3Z" transform="translate(-323.262 -701.802)" fill="#272829"/>
          <path id="Path_10043" data-name="Path 10043" d="M353.723,703.393c0,.026.009.035.037.035h.112c.029,0,.037-.009.037-.035v-1.221l1.1,1.269a.06.06,0,0,0,.035.015h.011c.015,0,.02,0,.02-.015v-1.567c0-.028-.007-.035-.035-.035h-.114c-.028,0-.037.007-.037.035v1.212l-1.1-1.258a.03.03,0,0,0-.028-.017h-.013c-.018,0-.022,0-.022.017Z" transform="translate(-319.146 -701.802)" fill="#272829"/>
          <path id="Path_10044" data-name="Path 10044" d="M351.9,703.377c0,.026.009.035.037.035h.116c.024,0,.033-.009.033-.035v-.687h.877c.028,0,.039-.011.039-.037v-.083c0-.028-.011-.039-.039-.039h-.877v-.549h.9c.026,0,.037-.009.037-.035v-.087c0-.024-.009-.035-.037-.035h-1.048c-.028,0-.037.011-.037.035Z" transform="translate(-313.11 -701.787)" fill="#272829"/>
          <path id="Path_10045" data-name="Path 10045" d="M351.391,703.412c.031,0,.037-.009.037-.035v-1.518c0-.024-.007-.035-.037-.035h-.112c-.028,0-.037.011-.037.035v1.518c0,.026.009.035.037.035Z" transform="translate(-310.072 -701.787)" fill="#272829"/>
          <path id="Path_10046" data-name="Path 10046" d="M350.142,703.377c0,.026.009.035.037.035h.961c.026,0,.035-.009.035-.035v-.085c0-.028-.009-.035-.035-.035h-.812v-1.4c0-.024-.009-.035-.039-.035h-.109c-.028,0-.037.011-.037.035Z" transform="translate(-307.412 -701.787)" fill="#272829"/>
          <path id="Path_10047" data-name="Path 10047" d="M348.7,703.393c0,.022.009.035.035.035h.114c.028,0,.035-.009.039-.035l.138-1.179.639,1.206c.015.024.024.037.044.037h.02c.018,0,.031-.013.042-.037l.641-1.21.138,1.184c0,.026.009.035.035.035h.116c.028,0,.037-.013.035-.035l-.2-1.56c0-.017,0-.022-.022-.022H350.5c-.009,0-.015,0-.026.022l-.757,1.37-.755-1.37c-.011-.02-.017-.022-.028-.022h-.015c-.015,0-.017,0-.02.022Z" transform="translate(-303.802 -701.802)" fill="#272829"/>
        </g>
      </g>
      <g id="Group_590" data-name="Group 590" transform="translate(1719.052 5500.304)">
        <g id="Group_588" data-name="Group 588" transform="translate(0 22.002)">
          <ellipse id="Ellipse_144" data-name="Ellipse 144" cx="5.852" cy="6.995" rx="5.852" ry="6.995" fill="#fff"/>
        </g>
        <g id="Group_589" data-name="Group 589" transform="translate(6.039)">
          <ellipse id="Ellipse_145" data-name="Ellipse 145" cx="9.51" cy="11.367" rx="9.51" ry="11.367" fill="#fff"/>
        </g>
      </g>
      <g id="Group_599" data-name="Group 599" transform="translate(1857.66 5500.038)">
        <g id="Group_591" data-name="Group 591" transform="translate(20.097 14.349)">
          <path id="Path_10048" data-name="Path 10048" d="M406.654,688.383a.862.862,0,0,1,.168-.319l3.847-4.472a.819.819,0,0,1,.621-.284.8.8,0,0,1,.379.092l4.582,2.38a.921.921,0,0,0,.234.081,3.3,3.3,0,0,0-.711,1.3c-.017.059-.031.116-.046.175a2.02,2.02,0,0,1-.223-.1l-4.015-2.087-3.3,3.838a10.558,10.558,0,0,0,.123,5.183c.1.5.2,1.015.28,1.543-.468.2-.947.383-1.409.6a22.51,22.51,0,0,0-.729-3.125A10.83,10.83,0,0,1,406.654,688.383Z" transform="translate(-403.403 -677.229)" fill="#f0b82d"/>
          <path id="Path_10049" data-name="Path 10049" d="M404.963,688.216c.107-.895.177-1.8.212-2.7,1.742-2.044,4.619-4.989,6.75-4.989a2.182,2.182,0,0,1,.891.182c.022.009.042.02.063.03l7.17,3.914a2.547,2.547,0,0,1,1.227,3.171,2.8,2.8,0,0,0-1.976.308l.4-.8a.909.909,0,0,0-.4-1.219l-.026-.013-7.144-3.9a.572.572,0,0,0-.206-.033c-1.562,0-4.932,3.542-6.827,6.059a.741.741,0,0,1-.12.127c0-.044-.009-.085-.015-.129Z" transform="translate(-404.963 -680.529)" fill="#f0b82d"/>
        </g>
        <g id="Group_592" data-name="Group 592" transform="translate(7.021 1.07)">
          <path id="Path_10050" data-name="Path 10050" d="M406.024,695.329a.819.819,0,0,0,.82-.818l.011-17.056a2.988,2.988,0,0,0-2.976-2.991l-1.886,0h0A2.984,2.984,0,0,0,399,677.44l-.013,17.056a.821.821,0,0,0,.82.82h0a.821.821,0,0,0,.821-.82l.013-17.053a1.33,1.33,0,0,1,.4-.95,1.344,1.344,0,0,1,.95-.392h0l1.884,0a1.352,1.352,0,0,1,1.343,1.35l-.013,17.056a.821.821,0,0,0,.821.82Z" transform="translate(-398.987 -674.46)" fill="#f0b82d"/>
        </g>
        <g id="Group_593" data-name="Group 593" transform="translate(1.875 4.669)">
          <path id="Path_10051" data-name="Path 10051" d="M397.456,695.646a.82.82,0,0,0,.82-.818l.009-16.117a.975.975,0,0,1,.969-.967h0l1.556,0a.971.971,0,0,1,.967.974l-.009,14.268a.818.818,0,0,0,.82.82h0a.815.815,0,0,0,.818-.816l.011-14.27a2.611,2.611,0,0,0-2.6-2.617l-1.556,0h-.007a2.607,2.607,0,0,0-2.61,2.6l-.011,16.117a.818.818,0,0,0,.818.82Z" transform="translate(-396.635 -676.105)" fill="#f0b82d"/>
        </g>
        <g id="Group_594" data-name="Group 594" transform="translate(13.275)">
          <path id="Path_10052" data-name="Path 10052" d="M408.882,698.851a.821.821,0,0,0,.82-.82l.015-21.062a2.988,2.988,0,0,0-2.98-2.991l-1.884-.007h0a2.992,2.992,0,0,0-2.989,2.98l-.015,18.141a.82.82,0,0,0,.821.818h0a.819.819,0,0,0,.82-.818l.015-18.136a1.348,1.348,0,0,1,1.346-1.344h0l1.884,0a1.349,1.349,0,0,1,1.343,1.35l-.013,21.062a.821.821,0,0,0,.818.823Z" transform="translate(-401.845 -673.971)" fill="#f0b82d"/>
        </g>
        <g id="Group_595" data-name="Group 595" transform="translate(0.617 20.736)">
          <path id="Path_10053" data-name="Path 10053" d="M422.458,708.409a3.778,3.778,0,0,0-2.372,2.149h-18.2c-.042-.326-.094-.72-.158-1.14a11.282,11.282,0,0,0-1.654-4.757,7.505,7.505,0,0,1-1.249-3.51c-.363-1.3-2.77-9.995-2.768-11.664a6.637,6.637,0,0,1,1.444-3.693.82.82,0,0,1,1.269,1.039,5.042,5.042,0,0,0-1.074,2.654c0,1.114,1.674,7.516,2.728,11.29a.777.777,0,0,1,.026.142,6,6,0,0,0,1.033,2.9,12.826,12.826,0,0,1,1.866,5.352c.079.518.14,1,.186,1.365,2.65-.048,11.439-.195,14.9-.09.186-1.381,1.407-2.7,3.37-3.545,1.917-.827,5.964-5.166,8.384-7.759l.613-.656c.287-.324.895-2.418,1.293-6.654a30.391,30.391,0,0,0,.125-6.61,3.193,3.193,0,0,0-2.265.1,1.043,1.043,0,0,0-.464.7c-.1.4-.175.965-.271,1.615-.374,2.586-.941,6.5-3.623,8.034a.83.83,0,0,1-.586.088c-5.711-1.291-7.472,3.376-7.551,3.59a.82.82,0,0,1-1.547-.547,7.8,7.8,0,0,1,9.12-4.715c1.781-1.274,2.249-4.512,2.564-6.684.1-.691.186-1.286.3-1.761a2.692,2.692,0,0,1,1.2-1.715,5.038,5.038,0,0,1,3.842-.217,1.159,1.159,0,0,1,.812.895c.394,1.319.219,4.967-.053,7.691-.28,2.807-.8,6.356-1.7,7.319l-.61.652C428.563,703.3,424.69,707.446,422.458,708.409Z" transform="translate(-396.06 -683.448)" fill="#f0b82d"/>
        </g>
        <g id="Group_596" data-name="Group 596" transform="translate(3.805 20.644)">
          <path id="Path_10054" data-name="Path 10054" d="M415.7,688.771a.82.82,0,0,0,.475-1.49,24.9,24.9,0,0,0-17.988-3.433.82.82,0,1,0,.309,1.61,23.7,23.7,0,0,1,16.734,3.162A.8.8,0,0,0,415.7,688.771Z" transform="translate(-397.517 -683.406)" fill="#f0b82d"/>
        </g>
        <g id="Group_597" data-name="Group 597" transform="translate(1.549 47.423)">
          <path id="Path_10055" data-name="Path 10055" d="M396.49,702.469l0-5.993a.826.826,0,0,1,.823-.821l24.578-.011h0a.821.821,0,0,1,.821.82l0,5.993a.819.819,0,0,1-.82.82l-24.578.011h0A.821.821,0,0,1,396.49,702.469Zm24.576-5.183-22.937.011,0,4.352,22.937-.011Z" transform="translate(-396.486 -695.645)" fill="#f0b82d"/>
        </g>
        <g id="Group_598" data-name="Group 598" transform="translate(0 53.416)">
          <rect id="Rectangle_144" data-name="Rectangle 144" width="27.677" height="16.295" transform="translate(0.822 0.827)" fill="#f0b82d"/>
          <path id="Path_10056" data-name="Path 10056" d="M395.778,715.505v-16.29a.82.82,0,0,1,.821-.818l27.674-.013h0a.822.822,0,0,1,.821.82l.007,16.3a.822.822,0,0,1-.821.82H396.6A.821.821,0,0,1,395.778,715.505Zm27.674-15.48-26.031.011v14.649h26.037Z" transform="translate(-395.778 -698.384)" fill="#f0b82d"/>
        </g>
      </g>
      <g id="Group_610" data-name="Group 610" transform="translate(1543.881 5489.021)">
        <g id="Group_602" data-name="Group 602" transform="translate(63.02 0.001)">
          <g id="Group_601" data-name="Group 601">
            <ellipse id="Ellipse_146" data-name="Ellipse 146" cx="14.175" cy="37.323" rx="14.175" ry="37.323" fill="#b02d5b"/>
          </g>
        </g>
        <g id="Group_604" data-name="Group 604" transform="translate(31.51)">
          <g id="Group_603" data-name="Group 603">
            <path id="Path_10057" data-name="Path 10057" d="M280.947,668.936a56.221,56.221,0,0,1,0,74.646,56.221,56.221,0,0,1,0-74.646Z" transform="translate(-266.771 -668.936)" fill="#f0b82d"/>
          </g>
        </g>
        <g id="Group_606" data-name="Group 606">
          <g id="Group_605" data-name="Group 605">
            <path id="Path_10058" data-name="Path 10058" d="M266.546,668.936a56.227,56.227,0,0,1,0,74.646,56.221,56.221,0,0,1,0-74.646Z" transform="translate(-252.37 -668.936)" fill="#643e7f"/>
          </g>
        </g>
        <g id="Group_607" data-name="Group 607" transform="translate(13.038 36.19)">
          <path id="Path_10059" data-name="Path 10059" d="M259.465,745.058a1.131,1.131,0,0,0,1.133-1.133V686.609a1.134,1.134,0,0,0-2.269,0v57.315A1.133,1.133,0,0,0,259.465,745.058Z" transform="translate(-258.329 -685.476)" fill="#b02d5b"/>
        </g>
        <g id="Group_608" data-name="Group 608" transform="translate(44.55 36.19)">
          <path id="Path_10060" data-name="Path 10060" d="M273.867,745.058A1.132,1.132,0,0,0,275,743.924V686.609a1.135,1.135,0,0,0-2.269,0v57.315A1.133,1.133,0,0,0,273.867,745.058Z" transform="translate(-272.731 -685.476)" fill="#643e7f"/>
        </g>
        <g id="Group_609" data-name="Group 609" transform="translate(76.06 36.19)">
          <path id="Path_10061" data-name="Path 10061" d="M288.268,745.058a1.133,1.133,0,0,0,1.136-1.133V686.609a1.136,1.136,0,0,0-2.271,0v57.315A1.133,1.133,0,0,0,288.268,745.058Z" transform="translate(-287.132 -685.476)" fill="#b02d5b"/>
        </g>
      </g>
      <g id="Group_616" data-name="Group 616" transform="translate(1362.375 5430.462)">
        <g id="Group_611" data-name="Group 611" transform="translate(179.377)">
          <path id="Path_10062" data-name="Path 10062" d="M254.591,642.732l3.658,3.74,3.658-3.74a1.863,1.863,0,0,1,2.663,2.606l-4.989,5.1a1.863,1.863,0,0,1-2.663,0l-4.991-5.1a1.863,1.863,0,0,1,2.663-2.606Z" transform="translate(-251.397 -642.172)" fill="#009ed9"/>
        </g>
        <g id="Group_612" data-name="Group 612" transform="translate(35.765 38.813)">
          <path id="Path_10063" data-name="Path 10063" d="M188.955,660.473l3.658,3.739,3.658-3.739a1.863,1.863,0,0,1,2.665,2.6l-4.991,5.1a1.867,1.867,0,0,1-2.663,0l-4.991-5.1a1.863,1.863,0,1,1,2.663-2.606Z" transform="translate(-185.761 -659.912)" fill="#009ed9"/>
        </g>
        <g id="Group_613" data-name="Group 613" transform="translate(124.707 35.598)">
          <path id="Path_10064" data-name="Path 10064" d="M229.6,659l3.661,3.739L236.923,659a1.862,1.862,0,0,1,2.663,2.6l-4.991,5.1a1.867,1.867,0,0,1-2.663,0l-4.989-5.1A1.861,1.861,0,1,1,229.6,659Z" transform="translate(-226.411 -658.442)" fill="#009ed9"/>
        </g>
        <g id="Group_614" data-name="Group 614" transform="translate(141.568 59.726)">
          <path id="Path_10065" data-name="Path 10065" d="M237.311,670.031l3.658,3.737,3.658-3.737a1.862,1.862,0,1,1,2.663,2.6l-4.991,5.1a1.862,1.862,0,0,1-2.663,0l-4.989-5.1a1.862,1.862,0,1,1,2.663-2.6Z" transform="translate(-234.117 -669.469)" fill="#009ed9"/>
        </g>
        <g id="Group_615" data-name="Group 615" transform="translate(0 71.196)">
          <path id="Path_10066" data-name="Path 10066" d="M172.609,675.271l3.661,3.741,3.658-3.741a1.863,1.863,0,1,1,2.663,2.606l-4.991,5.1a1.867,1.867,0,0,1-2.663,0l-4.989-5.1a1.862,1.862,0,1,1,2.661-2.606Z" transform="translate(-169.415 -674.712)" fill="#009ed9"/>
        </g>
      </g>
    </g>
    <path id="Path_9985" data-name="Path 9985" d="M-15.507,698.02a7.569,7.569,0,0,1,3.1.665,5.513,5.513,0,0,1,5.444-5.135,5.513,5.513,0,0,1,5.444,5.157A8.574,8.574,0,0,1,1.1,698.3a8.794,8.794,0,0,1,8.549,7.056H-23.2A7.787,7.787,0,0,1-15.507,698.02Z" transform="translate(964.133 4849.327)" fill="#fff"/>
    <path id="Path_9986" data-name="Path 9986" d="M-27.489,691.11a4.324,4.324,0,0,1,1.788.385,3.182,3.182,0,0,1,3.14-2.965,3.181,3.181,0,0,1,3.142,2.976,4.991,4.991,0,0,1,1.51-.234,5.077,5.077,0,0,1,4.934,4.07h-18.95A4.492,4.492,0,0,1-27.489,691.11Z" transform="translate(953.764 4843.363)" fill="#fff"/>
    <rect id="Rectangle_145" data-name="Rectangle 145" width="574.238" height="3.503" transform="translate(1920 5588.231) rotate(-180)" fill="#2199c9"/>
  </g>
</svg>
