<svg xmlns="http://www.w3.org/2000/svg" width="286.38" height="412.16" viewBox="0 0 286.38 412.16">
  <path id="Path_22183" data-name="Path 22183" d="M-187.72-228h68.78v-38H-229.52V0h41.8V-109.82h53.96v-38h-53.96Zm176.7-38H-72.2L-114.76,0h38.38l7.22-48.26h51.3L-10.64,0H31.54ZM-43.7-218.88-23.56-84.36H-63.84ZM47.12-63.84c0,42.56,22.42,66.88,63.46,66.88A85.719,85.719,0,0,0,139.84-1.9c5.7,11.4,17.48,18.24,36.1,18.24h5.7V-20.9h-3.8c-6.84,0-9.88-.76-11.78-5.7,5.32-9.88,7.98-22.42,7.98-37.24V-202.16c0-42.56-22.42-66.88-63.46-66.88s-63.46,24.32-63.46,66.88Zm41.8-140.98c0-19,8.36-26.22,21.66-26.22s21.66,7.22,21.66,26.22V-61.18c0,19-8.36,26.22-21.66,26.22S88.92-42.18,88.92-61.18Z" transform="translate(269.54 182.14) rotate(-90)" fill="none" stroke="#222" stroke-width="1"/>
</svg>
