
<svg xmlns="http://www.w3.org/2000/svg" width="1487.859" height="229.404" viewBox="0 0 1487.859 229.404">
  <path id="glass" d="M65.395-92.51h15.95v41.151c0,15.95-7.018,21.692-18.183,21.692S44.979-35.409,44.979-51.359V-171.941c0-15.95,7.018-22.011,18.183-22.011s18.183,6.061,18.183,22.011v23.925h33.176v-21.692c0-35.728-17.864-56.144-52.316-56.144S9.889-205.436,9.889-169.708V-53.592C9.889-17.864,27.753,2.552,62.2,2.552s52.316-20.416,52.316-56.144V-124.41H65.395ZM137.17,0H230V-31.9H172.26V-223.3H137.17ZM323.147-223.3H271.788L236.06,0h32.219l6.061-40.513H317.4L323.466,0h35.409Zm-27.434,39.556L312.62-70.818H278.806Zm74.965,14.036c0,63.8,68.585,72.413,68.585,118.349,0,15.95-7.018,21.692-18.183,21.692S402.9-35.409,402.9-51.359v-15.95H369.721v13.717c0,35.728,17.864,56.144,52.316,56.144s52.316-20.416,52.316-56.144c0-63.8-68.585-72.413-68.585-118.349,0-15.95,6.38-22.011,17.545-22.011s17.545,6.061,17.545,22.011v9.251h33.176v-7.018c0-35.728-17.545-56.144-51.678-56.144S370.678-205.436,370.678-169.708Zm119.306,0c0,63.8,68.585,72.413,68.585,118.349,0,15.95-7.018,21.692-18.183,21.692S522.2-35.409,522.2-51.359v-15.95H489.027v13.717c0,35.728,17.864,56.144,52.316,56.144s52.316-20.416,52.316-56.144c0-63.8-68.585-72.413-68.585-118.349,0-15.95,6.38-22.011,17.545-22.011s17.545,6.061,17.545,22.011v9.251H593.34v-7.018c0-35.728-17.545-56.144-51.678-56.144S489.984-205.436,489.984-169.708Zm241.8,86.449v31.9c0,15.95-7.018,21.692-18.183,21.692S695.42-35.409,695.42-51.359V-171.941c0-15.95,7.018-22.011,18.183-22.011s18.183,6.061,18.183,22.011v23.925h33.176v-21.692c0-35.728-17.864-56.144-52.316-56.144s-52.316,20.416-52.316,56.144V-53.592c0,35.728,17.864,56.144,52.316,56.144s52.316-20.416,52.316-56.144V-83.259ZM821.425-191.4h60.61v-31.9h-95.7V0h95.7V-31.9h-60.61V-97.3h48.169v-31.9H821.425ZM1012.825,0C1009.316-8.294,1009-16.269,1009-27.115V-61.567c0-23.287-5.742-40.194-23.287-47.531,15.631-7.337,22.968-22.33,22.968-45.3v-17.545c0-34.452-15.631-51.359-52-51.359H903.727V0h35.09V-90.915h12.122c15.95,0,22.968,7.656,22.968,28.391v35.09c0,18.183,1.276,21.692,3.19,27.434Zm-57.1-191.4c12.441,0,17.864,7.018,17.864,22.968v22.011c0,17.864-7.975,23.606-21.054,23.606H938.817V-191.4ZM1109.8-223.3h-51.359L1022.714,0h32.219l6.061-40.513h43.065L1110.12,0h35.409Zm-27.434,39.556,16.907,112.926H1065.46ZM1210.286-223.3h-48.807V0H1192.1V-157.9L1218.261,0h33.176l24.244-160.138V0h33.176V-223.3H1260.05L1236.125-64.757ZM1334.377,0h35.09V-223.3h-35.09Zm129.2-83.259v31.9c0,15.95-7.018,21.692-18.183,21.692s-18.183-5.742-18.183-21.692V-171.941c0-15.95,7.018-22.011,18.183-22.011s18.183,6.061,18.183,22.011v23.925h33.176v-21.692c0-35.728-17.864-56.144-52.316-56.144s-52.316,20.416-52.316,56.144V-53.592c0,35.728,17.864,56.144,52.316,56.144s52.316-20.416,52.316-56.144V-83.259Z" transform="translate(-9.389 226.352)" fill="none" stroke="#707070" stroke-width="1"/>
</svg>
