<svg xmlns="http://www.w3.org/2000/svg" width="1722.643" height="229.404" viewBox="0 0 1722.643 229.404">
  <path id="leather" d="M12.76,0h92.829V-31.9H47.85V-223.3H12.76ZM155.991-191.4H216.6v-31.9H120.9V0h95.7V-31.9h-60.61V-97.3H204.16v-31.9H155.991Zm160.138-31.9H264.77L229.042,0h32.219l6.061-40.513h43.065L316.448,0h35.409ZM288.7-183.744,305.6-70.818H271.788Zm57.1-7.656h36.685V0h35.09V-191.4h36.685v-31.9H345.8ZM504.658-95.7h39.875V0h35.728V-223.3H544.533v95.7H504.658v-95.7h-35.09V0h35.09Zm136.213-95.7h60.61v-31.9h-95.7V0h95.7V-31.9h-60.61V-97.3H689.04v-31.9H640.871ZM832.271,0c-3.509-8.294-3.828-16.269-3.828-27.115V-61.567c0-23.287-5.742-40.194-23.287-47.531,15.631-7.337,22.968-22.33,22.968-45.3v-17.545c0-34.452-15.631-51.359-52-51.359H723.173V0h35.09V-90.915h12.122c15.95,0,22.968,7.656,22.968,28.391v35.09c0,18.183,1.276,21.692,3.19,27.434Zm-57.1-191.4c12.441,0,17.864,7.018,17.864,22.968v22.011c0,17.864-7.975,23.606-21.054,23.606H758.263V-191.4ZM969.441-83.259v31.9c0,15.95-7.018,21.692-18.183,21.692s-18.183-5.742-18.183-21.692V-171.941c0-15.95,7.018-22.011,18.183-22.011s18.183,6.061,18.183,22.011v23.925h33.176v-21.692c0-35.728-17.864-56.144-52.316-56.144s-52.316,20.416-52.316,56.144V-53.592c0,35.728,17.864,56.144,52.316,56.144s52.316-20.416,52.316-56.144V-83.259ZM1059.08-191.4h60.61v-31.9h-95.7V0h95.7V-31.9h-60.61V-97.3h48.169v-31.9H1059.08ZM1250.48,0c-3.509-8.294-3.828-16.269-3.828-27.115V-61.567c0-23.287-5.742-40.194-23.287-47.531,15.631-7.337,22.968-22.33,22.968-45.3v-17.545c0-34.452-15.631-51.359-52-51.359h-52.954V0h35.09V-90.915h12.122c15.95,0,22.968,7.656,22.968,28.391v35.09c0,18.183,1.276,21.692,3.19,27.434Zm-57.1-191.4c12.441,0,17.864,7.018,17.864,22.968v22.011c0,17.864-7.975,23.606-21.054,23.606h-13.717V-191.4Zm154.077-31.9H1296.1L1260.369,0h32.219l6.061-40.513h43.065L1347.775,0h35.409Zm-27.434,39.556,16.907,112.926h-33.814ZM1447.941-223.3h-48.807V0h30.624V-157.9L1455.916,0h33.176l24.244-160.138V0h33.176V-223.3H1497.7L1473.78-64.757ZM1572.032,0h35.09V-223.3h-35.09Zm129.195-83.259v31.9c0,15.95-7.018,21.692-18.183,21.692s-18.183-5.742-18.183-21.692V-171.941c0-15.95,7.018-22.011,18.183-22.011s18.183,6.061,18.183,22.011v23.925H1734.4v-21.692c0-35.728-17.864-56.144-52.316-56.144s-52.316,20.416-52.316,56.144V-53.592c0,35.728,17.864,56.144,52.316,56.144S1734.4-17.864,1734.4-53.592V-83.259Z" transform="translate(-12.26 226.352)" fill="none" stroke="#707070" stroke-width="1"/>
</svg>
