<svg xmlns="http://www.w3.org/2000/svg" width="291" height="102.169" viewBox="0 0 291 102.169"><defs><style>.a{fill:#1a1818;}.b{fill:#FFF;}.c{fill:#FFF;}.d{fill:#FFF;}.e{fill:#FFF;}.f{fill:#FFF;}</style></defs><g transform="translate(-89.572 -133.615)"><g transform="translate(89.572 145.191)"><path class="a" d="M129.2,145.943v21.375a5.957,5.957,0,0,1-.106,1.138c-.664,3.41-4.231,6-8.542,6H101.578v.007l0,22.513H89.572V139.94H123.2a6,6,0,0,1,6,6m-12,6.01H101.578v10.5H117.2Z" transform="translate(-89.572 -139.94)"/><path class="a" d="M144.371,174.459h-6.428l15.075,22.521H138.533L125.4,177.349V196.98H113.39V139.94h33.628a6,6,0,0,1,6,6v21.375a5.815,5.815,0,0,1-.11,1.138c-.661,3.41-4.23,6-8.538,6m-3.357-22.506H125.4v10.5h15.619Z" transform="translate(-69.799 -139.94)"/><path class="a" d="M176.9,159.47v31.509a6,6,0,0,1-6,6h-27.63a6,6,0,0,1-6-6s0-.124-.009-.348c-.005-1.7-.048-9.281-.048-13.432V145.943a6,6,0,0,1,6-6h27.629a6.008,6.008,0,0,1,6,6v.331c.013,1.643.057,8.979.057,13.2M164.9,151.953H149.213v33.015H164.9Z" transform="translate(-50.024 -139.94)"/><path class="a" d="M200.7,139.94v12.013H186.886V196.98H174.878V151.953H161.071V139.94Z" transform="translate(-30.214 -139.94)"/><path class="a" d="M196.905,151.953v10.5h15.614v12.013H196.905v10.5h27.621V196.98H184.89V139.94h39.636v12.013Z" transform="translate(-10.44 -139.94)"/><path class="a" d="M263.4,196.159l-8.445-8.655a27.275,27.275,0,0,0,8.282-18.494V140.086H208.414V169.01c0,.494.112,12.217,9.971,19.942,7.4,5.8,14.177,10.181,14.46,10.366l2.976,1.918,2.976-1.918c.189-.121,3.223-2.085,7.392-5.071l9.347,9.581ZM235.823,188.1c-2.588-1.77-6.556-4.57-10.665-7.787a15.827,15.827,0,0,1-5.763-11.3V151.069h32.859v17.892a15.821,15.821,0,0,1-5.763,11.345C242.382,183.526,238.411,186.326,235.823,188.1Z" transform="translate(9.089 -139.819)"/></g><g transform="translate(204.894 211.299)"><path class="b" d="M171.262,179.192v18.381h-1.823v-3.907a8.593,8.593,0,0,1-7.517,4.2,9.451,9.451,0,0,1,0-18.9,8.342,8.342,0,0,1,7.517,4.241v-4.017Zm-16.856,9.189a7.383,7.383,0,0,0,7.517,7.7c10.233,0,10.233-15.368,0-15.368A7.351,7.351,0,0,0,154.406,188.382Z" transform="translate(-152.583 -173.647)"/><path class="b" d="M179.83,197.489v-3.313a7.308,7.308,0,0,1-6.548,3.609c-4.91,0-8.3-3.013-8.3-8.111v-10.6h1.823v10.567c0,4.167,2.568,6.4,6.548,6.364a6.388,6.388,0,0,0,6.437-6.7V179.07h1.823v18.419Z" transform="translate(-142.287 -173.563)"/><path class="b" d="M181.574,176.061v5.545h6.252v1.525h-6.252v11.2c0,2.493.522,4.241,3.386,4.241a6.812,6.812,0,0,0,2.828-.743l.633,1.488a8.035,8.035,0,0,1-3.461.93c-3.907,0-5.172-2.306-5.172-5.915v-11.2h-3.906v-1.525h3.906v-5.359Z" transform="translate(-133.24 -176.061)"/><path class="b" d="M184.237,188.471a9.342,9.342,0,1,1,18.679,0,9.34,9.34,0,1,1-18.679,0Zm16.893,0a7.559,7.559,0,1,0-15.106,0,7.554,7.554,0,1,0,15.106,0Z" transform="translate(-126.304 -173.697)"/><path class="b" d="M212.665,195.347a9.444,9.444,0,0,1-7.07,2.9c-5.32,0-9.749-3.2-9.749-9.711s4.429-9.713,9.749-9.713a8.716,8.716,0,0,1,6.623,2.716l-2.866,3.014a5.573,5.573,0,0,0-3.682-1.451,5.161,5.161,0,0,0-5.284,5.434A5,5,0,0,0,205.6,193.9a5.522,5.522,0,0,0,4.019-1.525Z" transform="translate(-116.667 -173.766)"/><path class="b" d="M221.138,179.314h4.352v18.344h-4.279l-.223-2.679c-1.041,2.158-3.906,3.2-5.952,3.238-5.434.037-9.451-3.313-9.451-9.749,0-6.325,4.2-9.636,9.563-9.6a6.732,6.732,0,0,1,5.84,2.976Zm-11.014,9.153a5.255,5.255,0,0,0,5.432,5.582c7.145,0,7.145-11.126,0-11.126A5.223,5.223,0,0,0,210.124,188.466Z" transform="translate(-108.581 -173.732)"/><path class="b" d="M222.761,179.33l.335,2.121a5.406,5.406,0,0,1,5.172-2.6,6.954,6.954,0,0,1,4.724,1.748l-2.046,3.944a4.534,4.534,0,0,0-3.274-1.19c-2.381,0-4.575,1.265-4.575,4.65v9.674h-4.541V179.33Z" transform="translate(-97.814 -173.748)"/><path class="b" d="M231.62,190.155c.3,2.269,2.269,3.906,5.47,3.906a7.565,7.565,0,0,0,4.91-1.711l2.9,2.866a11.272,11.272,0,0,1-7.888,2.976c-6.325,0-10.084-3.907-10.084-9.786,0-5.58,3.8-9.6,9.749-9.6,6.138,0,9.971,3.8,9.264,11.349Zm9.973-3.759c-.3-2.381-2.16-3.571-4.764-3.571A4.939,4.939,0,0,0,231.7,186.4Z" transform="translate(-90.86 -173.782)"/></g><path d="M247.852,133.615a7.815,7.815,0,1,1-7.82,7.824A7.809,7.809,0,0,1,247.852,133.615Zm.005,1.552a6.262,6.262,0,1,0,6.252,6.261A6.293,6.293,0,0,0,247.858,135.167Z" transform="translate(124.91)"/><path d="M242.451,135.615c1.446,0,2.85-.071,4.244.022a1.887,1.887,0,0,1,2.008,1.651,2.082,2.082,0,0,1-1.31,2.511c-.029.013-.051.046-.106.1a3.032,3.032,0,0,1,1.453,1.695c.328.674.663,1.343,1.043,2.116-.739,0-1.4.016-2.05-.016-.119-.005-.265-.2-.339-.337-.3-.575-.565-1.166-.862-1.742-.474-.921-.9-1.126-2-.972v3.022h-2.085Zm2.11,1.4v2.176c.7-.053,1.486.207,1.916-.474a1.4,1.4,0,0,0,.006-1.224C246.058,136.779,245.266,137.088,244.561,137.011Z" transform="translate(126.919 1.639)"/><g transform="translate(90.665 144.098)"><path class="c" d="M129.8,145.346v21.373a5.843,5.843,0,0,1-.108,1.14c-.663,3.408-4.23,6-8.54,6H102.177v.009l0,22.513H90.169v-57.04H123.8a6,6,0,0,1,6,6m-12.006,6.009H102.177v10.5h15.615Z" transform="translate(-90.169 -139.342)"/><path class="d" d="M144.968,173.86H138.54l15.077,22.522H139.129l-13.135-19.631v19.631H113.988v-57.04h33.626a6.005,6.005,0,0,1,6,6v21.373a5.993,5.993,0,0,1-.11,1.14c-.661,3.408-4.23,6-8.54,6m-3.357-22.506H125.994v10.5h15.617Z" transform="translate(-70.395 -139.342)"/><path class="e" d="M177.5,158.871V190.38a6,6,0,0,1-6,6h-27.63a6,6,0,0,1-6-6s0-.123-.007-.346c-.005-1.7-.049-9.283-.049-13.434V145.346a6,6,0,0,1,6-6h27.63a6,6,0,0,1,6,6v.331c.015,1.644.057,8.979.057,13.194m-12.006-7.517H149.812v33.015h15.681Z" transform="translate(-50.621 -139.342)"/><path class="c" d="M201.3,139.343v12.013H187.484v45.027H175.476V151.356H161.669V139.343Z" transform="translate(-30.811 -139.342)"/><path class="f" d="M197.5,151.356v10.5h15.614V173.87H197.5v10.5h27.621v12.013H185.487v-57.04h39.636v12.013Z" transform="translate(-11.037 -139.343)"/><path class="d" d="M264,195.561l-8.443-8.655a27.275,27.275,0,0,0,8.282-18.494V139.488H209.011v28.924c0,.494.113,12.218,9.973,19.944,7.4,5.8,14.175,10.181,14.46,10.364l2.976,1.92,2.976-1.918c.189-.123,3.221-2.085,7.39-5.071l9.349,9.581ZM236.422,187.5c-2.588-1.768-6.558-4.568-10.665-7.788a15.814,15.814,0,0,1-5.763-11.3V150.471h32.857v17.892a15.815,15.815,0,0,1-5.761,11.347C242.981,182.929,239.01,185.73,236.422,187.5Z" transform="translate(8.492 -139.222)"/></g></g></svg>