<svg xmlns="http://www.w3.org/2000/svg" width="865.49" height="229.404" viewBox="0 0 865.49 229.404">
  <path id="Path_22174" data-name="Path 22174" d="M61.248-223.3H12.441V0H43.065V-157.9L69.223,0H102.4l24.244-160.138V0h33.176V-223.3H111.012L87.087-64.757Zm169.07,53.592c0,63.8,68.585,72.413,68.585,118.349,0,15.95-7.018,21.692-18.183,21.692s-18.183-5.742-18.183-21.692v-15.95H229.361v13.717c0,35.728,17.864,56.144,52.316,56.144s52.316-20.416,52.316-56.144c0-63.8-68.585-72.413-68.585-118.349,0-15.95,6.38-22.011,17.545-22.011s17.545,6.061,17.545,22.011v9.251h33.176v-7.018c0-35.728-17.545-56.144-51.678-56.144S230.318-205.436,230.318-169.708ZM389.18-191.4h60.61v-31.9h-95.7V0h95.7V-31.9H389.18V-97.3h48.169v-31.9H389.18ZM580.58,0c-3.509-8.294-3.828-16.269-3.828-27.115V-61.567c0-23.287-5.742-40.194-23.287-47.531,15.631-7.337,22.968-22.33,22.968-45.3v-17.545c0-34.452-15.631-51.359-52-51.359H471.482V0h35.09V-90.915h12.122c15.95,0,22.968,7.656,22.968,28.391v35.09c0,18.183,1.276,21.692,3.19,27.434Zm-57.1-191.4c12.441,0,17.864,7.018,17.864,22.968v22.011c0,17.864-7.975,23.606-21.054,23.606H506.572V-191.4ZM599.72,0h35.09V-223.3H599.72Zm95.7-191.4h60.61v-31.9h-95.7V0h95.7V-31.9H695.42V-97.3h48.169v-31.9H695.42Zm77.836,21.692c0,63.8,68.585,72.413,68.585,118.349,0,15.95-7.018,21.692-18.183,21.692s-18.183-5.742-18.183-21.692v-15.95H772.3v13.717c0,35.728,17.864,56.144,52.316,56.144s52.316-20.416,52.316-56.144c0-63.8-68.585-72.413-68.585-118.349,0-15.95,6.38-22.011,17.545-22.011s17.545,6.061,17.545,22.011v9.251h33.176v-7.018c0-35.728-17.545-56.144-51.678-56.144S773.256-205.436,773.256-169.708Z" transform="translate(-11.941 226.352)" fill="none" stroke="#707070" stroke-width="1"/>
</svg>
