<svg xmlns="http://www.w3.org/2000/svg" width="1788.995" height="229.404" viewBox="0 0 1788.995 229.404">
  <path id="Path_22176" data-name="Path 22176" d="M61.248-223.3H12.441V0H43.065V-157.9L69.223,0H102.4l24.244-160.138V0h33.176V-223.3H111.012L87.087-64.757ZM185.339,0h35.09V-223.3h-35.09Zm129.2-83.259v31.9c0,15.95-7.018,21.692-18.183,21.692s-18.183-5.742-18.183-21.692V-171.941c0-15.95,7.018-22.011,18.183-22.011s18.183,6.061,18.183,22.011v23.925H347.71v-21.692c0-35.728-17.864-56.144-52.316-56.144s-52.316,20.416-52.316,56.144V-53.592c0,35.728,17.864,56.144,52.316,56.144S347.71-17.864,347.71-53.592V-83.259ZM478.181,0c-3.509-8.294-3.828-16.269-3.828-27.115V-61.567c0-23.287-5.742-40.194-23.287-47.531,15.631-7.337,22.968-22.33,22.968-45.3v-17.545c0-34.452-15.631-51.359-52-51.359H369.083V0h35.09V-90.915h12.122c15.95,0,22.968,7.656,22.968,28.391v35.09c0,18.183,1.276,21.692,3.19,27.434Zm-57.1-191.4c12.441,0,17.864,7.018,17.864,22.968v22.011c0,17.864-7.975,23.606-21.054,23.606H404.173V-191.4Zm108.46,19.459c0-15.95,7.018-22.011,18.183-22.011s18.183,6.061,18.183,22.011V-51.359c0,15.95-7.018,22.011-18.183,22.011S529.54-35.409,529.54-51.359ZM494.45-53.592c0,35.728,18.821,56.144,53.273,56.144S601-17.864,601-53.592V-169.708c0-35.728-18.821-56.144-53.273-56.144s-53.273,20.416-53.273,56.144ZM658.735-191.4h57.739v-31.9H623.645V0h35.09V-92.191h45.3v-31.9h-45.3ZM733.381,0h35.09V-223.3h-35.09ZM846.945-223.3H793.991V0h55.187c35.09,0,53.273-18.5,53.273-52.954V-71.137c0-23.606-7.337-40.513-26.158-47.85,15.631-7.337,22.649-22.011,22.649-44.979v-7.975C898.942-206.393,883.311-223.3,846.945-223.3Zm-2.233,122.815c15.95,0,22.649,6.38,22.649,27.115v19.459c0,16.588-6.38,22.011-18.183,22.011h-20.1v-68.585Zm1.276-90.915c12.441,0,17.864,7.018,17.864,22.968v12.441c0,17.864-7.975,23.606-21.054,23.606H829.081V-191.4ZM1032.6,0c-3.509-8.294-3.828-16.269-3.828-27.115V-61.567c0-23.287-5.742-40.194-23.287-47.531,15.631-7.337,22.968-22.33,22.968-45.3v-17.545c0-34.452-15.631-51.359-52-51.359H923.505V0h35.09V-90.915h12.122c15.95,0,22.968,7.656,22.968,28.391v35.09c0,18.183,1.276,21.692,3.19,27.434ZM975.5-191.4c12.441,0,17.864,7.018,17.864,22.968v22.011c0,17.864-7.975,23.606-21.054,23.606H958.595V-191.4Zm111.331,0h60.61v-31.9h-95.7V0h95.7V-31.9h-60.61V-97.3H1135v-31.9h-48.169ZM1287.165-83.259v31.9c0,15.95-7.018,21.692-18.183,21.692S1250.8-35.409,1250.8-51.359V-171.941c0-15.95,7.018-22.011,18.183-22.011s18.183,6.061,18.183,22.011v23.925h33.176v-21.692c0-35.728-17.864-56.144-52.316-56.144s-52.316,20.416-52.316,56.144V-53.592c0,35.728,17.864,56.144,52.316,56.144s52.316-20.416,52.316-56.144V-83.259ZM1341.714,0h92.829V-31.9H1376.8V-223.3h-35.09Zm140.36-171.941c0-15.95,7.018-22.011,18.183-22.011s18.183,6.061,18.183,22.011V-51.359c0,15.95-7.018,22.011-18.183,22.011s-18.183-6.061-18.183-22.011Zm-35.09,118.349c0,35.728,18.821,56.144,53.273,56.144s53.273-20.416,53.273-56.144V-169.708c0-35.728-18.821-56.144-53.273-56.144s-53.273,20.416-53.273,56.144ZM1565.971-191.4h36.685V0h35.09V-191.4h36.685v-31.9h-108.46Zm158.862,95.7h39.875V0h35.728V-223.3h-35.728v95.7h-39.875v-95.7h-35.09V0h35.09Z" transform="translate(-11.941 226.352)" fill="none" stroke="#707070" stroke-width="1"/>
</svg>
