<svg xmlns="http://www.w3.org/2000/svg" width="1564.795" height="200.764" viewBox="0 0 1564.795 200.764">
  <path id="Path_22181" data-name="Path 22181" d="M53.568-195.3H10.881V0H37.665V-138.1L60.543,0H89.559l21.2-140.058V0h29.016V-195.3H97.092L76.167-56.637ZM162.1,0h30.69V-195.3H162.1ZM275.094-72.819v27.9c0,13.95-6.138,18.972-15.9,18.972s-15.9-5.022-15.9-18.972V-150.381c0-13.95,6.138-19.251,15.9-19.251s15.9,5.3,15.9,19.251v20.925H304.11v-18.972c0-31.248-15.624-49.1-45.756-49.1s-45.756,17.856-45.756,49.1V-46.872c0,31.248,15.624,49.1,45.756,49.1s45.756-17.856,45.756-49.1V-72.819ZM418.221,0c-3.069-7.254-3.348-14.229-3.348-23.715V-53.847c0-20.367-5.022-35.154-20.367-41.571,13.671-6.417,20.088-19.53,20.088-39.618v-15.345c0-30.132-13.671-44.919-45.477-44.919H322.8V0h30.69V-79.515h10.6c13.95,0,20.088,6.7,20.088,24.831v30.69c0,15.9,1.116,18.972,2.79,23.994ZM368.28-167.4c10.881,0,15.624,6.138,15.624,20.088v19.251c0,15.624-6.975,20.646-18.414,20.646h-12V-167.4Zm94.86,17.019c0-13.95,6.138-19.251,15.9-19.251s15.9,5.3,15.9,19.251V-44.919c0,13.95-6.138,19.251-15.9,19.251s-15.9-5.3-15.9-19.251ZM432.45-46.872c0,31.248,16.461,49.1,46.593,49.1s46.593-17.856,46.593-49.1V-148.428c0-31.248-16.461-49.1-46.593-49.1s-46.593,17.856-46.593,49.1ZM576.135-167.4h50.5v-27.9H545.445V0h30.69V-80.631h39.618v-27.9H576.135ZM641.421,0h30.69V-195.3h-30.69Zm99.324-195.3H694.431V0H742.7c30.69,0,46.593-16.182,46.593-46.314v-15.9c0-20.646-6.417-35.433-22.878-41.85,13.671-6.417,19.809-19.251,19.809-39.339v-6.975C786.222-180.513,772.551-195.3,740.745-195.3ZM738.792-87.885c13.95,0,19.809,5.58,19.809,23.715v17.019c0,14.508-5.58,19.251-15.9,19.251H725.121V-87.885Zm1.116-79.515c10.881,0,15.624,6.138,15.624,20.088v10.881c0,15.624-6.975,20.646-18.414,20.646h-12V-167.4Zm98.487,0H891.4v-27.9H807.7V0h83.7V-27.9h-53.01V-85.1h42.129V-113H838.395ZM1005.795,0c-3.069-7.254-3.348-14.229-3.348-23.715V-53.847c0-20.367-5.022-35.154-20.367-41.571,13.671-6.417,20.088-19.53,20.088-39.618v-15.345c0-30.132-13.671-44.919-45.477-44.919H910.377V0h30.69V-79.515h10.6c13.95,0,20.088,6.7,20.088,24.831v30.69c0,15.9,1.116,18.972,2.79,23.994ZM955.854-167.4c10.881,0,15.624,6.138,15.624,20.088v19.251c0,15.624-6.975,20.646-18.414,20.646h-12V-167.4Zm169.911,94.581v27.9c0,13.95-6.138,18.972-15.9,18.972s-15.9-5.022-15.9-18.972V-150.381c0-13.95,6.138-19.251,15.9-19.251s15.9,5.3,15.9,19.251v20.925h29.016v-18.972c0-31.248-15.624-49.1-45.756-49.1s-45.756,17.856-45.756,49.1V-46.872c0,31.248,15.624,49.1,45.756,49.1s45.756-17.856,45.756-49.1V-72.819ZM1173.474,0h81.189V-27.9h-50.5V-195.3h-30.69Zm122.76-150.381c0-13.95,6.138-19.251,15.9-19.251s15.9,5.3,15.9,19.251V-44.919c0,13.95-6.138,19.251-15.9,19.251s-15.9-5.3-15.9-19.251Zm-30.69,103.509c0,31.248,16.461,49.1,46.593,49.1s46.593-17.856,46.593-49.1V-148.428c0-31.248-16.461-49.1-46.593-49.1s-46.593,17.856-46.593,49.1ZM1369.611-167.4H1401.7V0h30.69V-167.4h32.085v-27.9h-94.86Zm138.942,83.7h34.875V0h31.248V-195.3h-31.248v83.7h-34.875v-83.7h-30.69V0h30.69Z" transform="translate(-10.381 198.032)" fill="none" stroke="#707070" stroke-width="1"/>
</svg>
