<svg xmlns="http://www.w3.org/2000/svg" width="771.066" height="229.404" viewBox="0 0 771.066 229.404">
  <path id="Path_22177" data-name="Path 22177" d="M-311.5-223.3H-360.31V0h30.624V-157.9L-303.529,0h33.176l24.244-160.138V0h33.176V-223.3H-261.74L-285.664-64.757ZM-187.413,0h35.09V-223.3h-35.09Zm56.144-169.708c0,63.8,68.585,72.413,68.585,118.349,0,15.95-7.018,21.692-18.183,21.692s-18.183-5.742-18.183-21.692v-15.95h-33.176v13.717c0,35.728,17.864,56.144,52.316,56.144s52.316-20.416,52.316-56.144c0-63.8-68.585-72.413-68.585-118.349,0-15.95,6.38-22.011,17.545-22.011s17.545,6.061,17.545,22.011v9.251h33.176v-7.018c0-35.728-17.545-56.144-51.678-56.144S-131.268-205.436-131.268-169.708Zm119.306,0c0,63.8,68.585,72.413,68.585,118.349,0,15.95-7.018,21.692-18.183,21.692S20.257-35.409,20.257-51.359v-15.95H-12.92v13.717C-12.92-17.864,4.944,2.552,39.4,2.552S91.713-17.864,91.713-53.592c0-63.8-68.585-72.413-68.585-118.349,0-15.95,6.38-22.011,17.545-22.011s17.545,6.061,17.545,22.011v9.251H91.394v-7.018c0-35.728-17.545-56.144-51.678-56.144S-11.962-205.436-11.962-169.708ZM111.809,0H146.9V-223.3h-35.09Zm92.829-171.941c0-15.95,7.018-22.011,18.183-22.011S241-187.891,241-171.941V-51.359c0,15.95-7.018,22.011-18.183,22.011s-18.183-6.061-18.183-22.011ZM169.549-53.592c0,35.728,18.821,56.144,53.273,56.144s53.273-20.416,53.273-56.144V-169.708c0-35.728-18.821-56.144-53.273-56.144s-53.273,20.416-53.273,56.144ZM373.708,0h36.047V-223.3H378.493V-89.639L342.447-223.3H298.424V0h31.581V-161.733Z" transform="translate(360.81 226.352)" fill="none" stroke="#000" stroke-width="1"/>
</svg>
