<svg xmlns="http://www.w3.org/2000/svg" width="1040.94" height="229.723" viewBox="0 0 1040.94 229.723">
  <path id="Path_22176" data-name="Path 22176" d="M-486.156-171.941c0-15.95,7.018-22.011,18.183-22.011s18.183,6.061,18.183,22.011V-51.359c0,15.95-7.018,22.011-18.183,22.011s-18.183-6.061-18.183-22.011Zm-35.09,118.349c0,35.728,18.821,56.144,53.273,56.144S-414.7-17.864-414.7-53.592V-169.708c0-35.728-18.821-56.144-53.273-56.144s-53.273,20.416-53.273,56.144Zm127.6-169.708V-53.273c0,35.728,17.864,56.144,52.316,56.144s52.316-20.416,52.316-56.144V-223.3H-322.19V-51.04c0,15.95-7.018,21.692-18.183,21.692s-18.183-5.742-18.183-21.692V-223.3ZM-155.991,0c-3.509-8.294-3.828-16.269-3.828-27.115V-61.567c0-23.287-5.742-40.194-23.287-47.531,15.631-7.337,22.968-22.33,22.968-45.3v-17.545c0-34.452-15.631-51.359-52-51.359h-52.954V0H-230V-90.915h12.122c15.95,0,22.968,7.656,22.968,28.391v35.09c0,18.183,1.276,21.692,3.19,27.434Zm-57.1-191.4c12.441,0,17.864,7.018,17.864,22.968v22.011c0,17.864-7.975,23.606-21.054,23.606H-230V-191.4Zm151.844-31.9H-96.657L-62.205,0H-9.889L24.563-223.3H-7.656l-26.8,182.149ZM40.832,0h35.09V-223.3H40.832ZM96.976-169.708c0,63.8,68.585,72.413,68.585,118.349,0,15.95-7.018,21.692-18.183,21.692S129.2-35.409,129.2-51.359v-15.95H96.019v13.717c0,35.728,17.864,56.144,52.316,56.144s52.316-20.416,52.316-56.144c0-63.8-68.585-72.413-68.585-118.349,0-15.95,6.38-22.011,17.545-22.011s17.545,6.061,17.545,22.011v9.251h33.176v-7.018c0-35.728-17.545-56.144-51.678-56.144S96.976-205.436,96.976-169.708ZM220.748,0h35.09V-223.3h-35.09Zm92.829-171.941c0-15.95,7.018-22.011,18.183-22.011s18.183,6.061,18.183,22.011V-51.359c0,15.95-7.018,22.011-18.183,22.011s-18.183-6.061-18.183-22.011ZM278.487-53.592c0,35.728,18.821,56.144,53.273,56.144s53.273-20.416,53.273-56.144V-169.708c0-35.728-18.821-56.144-53.273-56.144s-53.273,20.416-53.273,56.144ZM482.647,0h36.047V-223.3H487.432V-89.639L451.385-223.3H407.363V0h31.581V-161.733Z" transform="translate(521.746 226.352)" fill="none" stroke="#000" stroke-width="1"/>
</svg>
