<svg xmlns="http://www.w3.org/2000/svg" width="351.262" height="229.404" viewBox="0 0 351.262 229.404">
  <path id="Path_22217" data-name="Path 22217" d="M64.438-223.3H12.76V0H47.85V-83.9H64.438c35.09,0,52.316-19.459,52.316-55.187v-29.029C116.754-203.841,99.528-223.3,64.438-223.3Zm0,31.9c11.165,0,17.226,5.1,17.226,21.054v33.495c0,15.95-6.061,21.054-17.226,21.054H47.85v-75.6Zm66.352-31.9v31.9h69.861L149.292,0h35.09L236.06-192.676V-223.3Zm160.776,51.359c0-15.95,7.018-22.011,18.183-22.011s18.183,6.061,18.183,22.011V-51.359c0,15.95-7.018,22.011-18.183,22.011s-18.183-6.061-18.183-22.011ZM256.476-53.592c0,35.728,18.821,56.144,53.273,56.144s53.273-20.416,53.273-56.144V-169.708c0-35.728-18.821-56.144-53.273-56.144s-53.273,20.416-53.273,56.144Z" transform="translate(-12.26 226.352)" fill="none" stroke="#707070" stroke-width="1"/>
</svg>
