<svg xmlns="http://www.w3.org/2000/svg" width="557.592" height="241.292" viewBox="0 0 557.592 241.292">
  <path id="Path_22177" data-name="Path 22177" d="M64.438-223.3H12.76V0H47.85V-83.9H64.438c35.09,0,52.316-19.459,52.316-55.187v-29.029C116.754-203.841,99.528-223.3,64.438-223.3Zm0,31.9c11.165,0,17.226,5.1,17.226,21.054v33.495c0,15.95-6.061,21.054-17.226,21.054H47.85v-75.6Zm66.352-31.9v31.9h69.861L149.292,0h35.09L236.06-192.676V-223.3Zm160.776,51.359c0-15.95,7.018-22.011,18.183-22.011s18.183,6.061,18.183,22.011V-51.359c0,15.95-7.018,22.011-18.183,22.011s-18.183-6.061-18.183-22.011ZM256.476-53.592c0,35.728,18.821,56.144,53.273,56.144s53.273-20.416,53.273-56.144V-169.708c0-35.728-18.821-56.144-53.273-56.144s-53.273,20.416-53.273,56.144ZM464.78-106h27.167L506.46-236.251H488.6L477.991-132.794,467.757-236.251H448.033l-9.862,102.712L427.193-236.251h-19.91L421.8-106h28.1l7.443-69.405Zm44.1-98.991c0,37.215,40.006,42.239,40.006,69.033,0,9.3-4.094,12.653-10.606,12.653s-10.606-3.349-10.606-12.653v-9.3H508.321v8c0,20.84,10.42,32.749,30.516,32.749s30.516-11.909,30.516-32.749c0-37.215-40.006-42.239-40.006-69.033,0-9.3,3.721-12.839,10.234-12.839s10.234,3.535,10.234,12.839v5.4h19.352v-4.094c0-20.84-10.234-32.749-30.144-32.749S508.879-225.831,508.879-204.991Z" transform="translate(-12.26 238.24)" fill="none" stroke="#707070" stroke-width="1"/>
</svg>
