<svg xmlns="http://www.w3.org/2000/svg" width="702.162" height="229.404" viewBox="0 0 702.162 229.404">
  <path id="Path_22217" data-name="Path 22217" d="M64.438-223.3H12.76V0H47.85V-83.9H64.438c35.09,0,52.316-19.459,52.316-55.187v-29.029C116.754-203.841,99.528-223.3,64.438-223.3Zm0,31.9c11.165,0,17.226,5.1,17.226,21.054v33.495c0,15.95-6.061,21.054-17.226,21.054H47.85v-75.6Zm66.352-31.9v31.9h69.861L149.292,0h35.09L236.06-192.676V-223.3Zm160.776,51.359c0-15.95,7.018-22.011,18.183-22.011s18.183,6.061,18.183,22.011V-51.359c0,15.95-7.018,22.011-18.183,22.011s-18.183-6.061-18.183-22.011ZM256.476-53.592c0,35.728,18.821,56.144,53.273,56.144s53.273-20.416,53.273-56.144V-169.708c0-35.728-18.821-56.144-53.273-56.144s-53.273,20.416-53.273,56.144ZM525.712,0h46.574l24.882-223.3H566.544L548.361-45.936,530.816-223.3H497L480.095-47.212,461.274-223.3H427.141L452.023,0h48.169l12.76-118.987Zm84.535-169.708c0,63.8,68.585,72.413,68.585,118.349,0,15.95-7.018,21.692-18.183,21.692s-18.183-5.742-18.183-21.692v-15.95H609.29v13.717c0,35.728,17.864,56.144,52.316,56.144s52.316-20.416,52.316-56.144c0-63.8-68.585-72.413-68.585-118.349,0-15.95,6.38-22.011,17.545-22.011s17.545,6.061,17.545,22.011v9.251H713.6v-7.018c0-35.728-17.545-56.144-51.678-56.144S610.247-205.436,610.247-169.708Z" transform="translate(-12.26 226.352)" fill="none" stroke="#707070" stroke-width="1"/>
</svg>
