
<svg xmlns="http://www.w3.org/2000/svg" width="1658.843" height="229.404" viewBox="0 0 1658.843 229.404">
  <path id="plastic" d="M64.438-223.3H12.76V0H47.85V-83.9H64.438c35.09,0,52.316-19.459,52.316-55.187v-29.029C116.754-203.841,99.528-223.3,64.438-223.3Zm0,31.9c11.165,0,17.226,5.1,17.226,21.054v33.495c0,15.95-6.061,21.054-17.226,21.054H47.85v-75.6ZM133.023,0h92.829V-31.9H168.113V-223.3h-35.09ZM319-223.3H267.641L231.913,0h32.219l6.061-40.513h43.065L319.319,0h35.409Zm-27.434,39.556L308.473-70.818H274.659Zm74.965,14.036c0,63.8,68.585,72.413,68.585,118.349,0,15.95-7.018,21.692-18.183,21.692S398.75-35.409,398.75-51.359v-15.95H365.574v13.717c0,35.728,17.864,56.144,52.316,56.144s52.316-20.416,52.316-56.144c0-63.8-68.585-72.413-68.585-118.349,0-15.95,6.38-22.011,17.545-22.011s17.545,6.061,17.545,22.011v9.251h33.176v-7.018c0-35.728-17.545-56.144-51.678-56.144S366.531-205.436,366.531-169.708ZM480.1-191.4H516.78V0h35.09V-191.4h36.685v-31.9H480.1ZM603.867,0h35.09V-223.3h-35.09Zm129.2-83.259v31.9c0,15.95-7.018,21.692-18.183,21.692S696.7-35.409,696.7-51.359V-171.941c0-15.95,7.018-22.011,18.183-22.011s18.183,6.061,18.183,22.011v23.925h33.176v-21.692c0-35.728-17.864-56.144-52.316-56.144s-52.316,20.416-52.316,56.144V-53.592c0,35.728,17.864,56.144,52.316,56.144s52.316-20.416,52.316-56.144V-83.259Zm172.579,0v31.9c0,15.95-7.018,21.692-18.183,21.692s-18.183-5.742-18.183-21.692V-171.941c0-15.95,7.018-22.011,18.183-22.011s18.183,6.061,18.183,22.011v23.925h33.176v-21.692c0-35.728-17.864-56.144-52.316-56.144s-52.316,20.416-52.316,56.144V-53.592c0,35.728,17.864,56.144,52.316,56.144s52.316-20.416,52.316-56.144V-83.259ZM995.28-191.4h60.61v-31.9h-95.7V0h95.7V-31.9H995.28V-97.3h48.169v-31.9H995.28ZM1186.68,0c-3.509-8.294-3.828-16.269-3.828-27.115V-61.567c0-23.287-5.742-40.194-23.287-47.531,15.631-7.337,22.968-22.33,22.968-45.3v-17.545c0-34.452-15.631-51.359-52-51.359h-52.954V0h35.09V-90.915h12.122c15.95,0,22.968,7.656,22.968,28.391v35.09c0,18.183,1.276,21.692,3.19,27.434Zm-57.1-191.4c12.441,0,17.864,7.018,17.864,22.968v22.011c0,17.864-7.975,23.606-21.054,23.606h-13.717V-191.4Zm154.077-31.9H1232.3L1196.569,0h32.219l6.061-40.513h43.065L1283.975,0h35.409Zm-27.434,39.556,16.907,112.926h-33.814ZM1384.141-223.3h-48.807V0h30.624V-157.9L1392.116,0h33.176l24.244-160.138V0h33.176V-223.3H1433.9L1409.98-64.757ZM1508.232,0h35.09V-223.3h-35.09Zm129.195-83.259v31.9c0,15.95-7.018,21.692-18.183,21.692s-18.183-5.742-18.183-21.692V-171.941c0-15.95,7.018-22.011,18.183-22.011s18.183,6.061,18.183,22.011v23.925H1670.6v-21.692c0-35.728-17.864-56.144-52.316-56.144s-52.316,20.416-52.316,56.144V-53.592c0,35.728,17.864,56.144,52.316,56.144S1670.6-17.864,1670.6-53.592V-83.259Z" transform="translate(-12.26 226.352)" fill="none" stroke="#707070" stroke-width="1"/>
</svg>