<svg xmlns="http://www.w3.org/2000/svg" width="1470.952" height="229.404" viewBox="0 0 1470.952 229.404">
  <path id="Path_22217" data-name="Path 22217" d="M-681.384-223.3h-51.678V0h35.09V-83.9h16.588c35.09,0,52.316-19.459,52.316-55.187v-29.029C-629.068-203.841-646.294-223.3-681.384-223.3Zm0,31.9c11.165,0,17.226,5.1,17.226,21.054v33.495c0,15.95-6.061,21.054-17.226,21.054h-16.588v-75.6ZM-503.7,0c-3.509-8.294-3.828-16.269-3.828-27.115V-61.567c0-23.287-5.742-40.194-23.287-47.531,15.631-7.337,22.968-22.33,22.968-45.3v-17.545c0-34.452-15.631-51.359-52-51.359H-612.8V0h35.09V-90.915h12.122c15.95,0,22.968,7.656,22.968,28.391v35.09c0,18.183,1.276,21.692,3.19,27.434Zm-57.1-191.4c12.441,0,17.864,7.018,17.864,22.968v22.011c0,17.864-7.975,23.606-21.054,23.606h-13.717V-191.4Zm111.331,0h60.61v-31.9h-95.7V0h95.7V-31.9h-60.61V-97.3H-401.3v-31.9h-48.169Zm77.836,21.692c0,63.8,68.585,72.413,68.585,118.349,0,15.95-7.018,21.692-18.183,21.692s-18.183-5.742-18.183-21.692v-15.95h-33.176v13.717c0,35.728,17.864,56.144,52.316,56.144s52.316-20.416,52.316-56.144c0-63.8-68.585-72.413-68.585-118.349,0-15.95,6.38-22.011,17.545-22.011s17.545,6.061,17.545,22.011v9.251h33.176v-7.018c0-35.728-17.545-56.144-51.678-56.144S-371.635-205.436-371.635-169.708Zm119.306,0c0,63.8,68.585,72.413,68.585,118.349,0,15.95-7.018,21.692-18.183,21.692s-18.183-5.742-18.183-21.692v-15.95h-33.176v13.717c0,35.728,17.864,56.144,52.316,56.144s52.316-20.416,52.316-56.144c0-63.8-68.585-72.413-68.585-118.349,0-15.95,6.38-22.011,17.545-22.011s17.545,6.061,17.545,22.011v9.251h33.176v-7.018c0-35.728-17.545-56.144-51.678-56.144S-252.329-205.436-252.329-169.708ZM29.986,0c-3.509-8.294-3.828-16.269-3.828-27.115V-61.567c0-23.287-5.742-40.194-23.287-47.531,15.631-7.337,22.968-22.33,22.968-45.3v-17.545c0-34.452-15.631-51.359-52-51.359H-79.112V0h35.09V-90.915H-31.9c15.95,0,22.968,7.656,22.968,28.391v35.09C-8.932-9.251-7.656-5.742-5.742,0Zm-57.1-191.4c12.441,0,17.864,7.018,17.864,22.968v22.011c0,17.864-7.975,23.606-21.054,23.606H-44.022V-191.4Zm111.331,0h60.61v-31.9h-95.7V0h95.7V-31.9H84.216V-97.3h48.169v-31.9H84.216ZM166.518,0h92.829V-31.9H201.608V-223.3h-35.09ZM309.749-191.4h60.61v-31.9h-95.7V0h95.7V-31.9h-60.61V-97.3h48.169v-31.9H309.749Zm160.138-31.9H418.528L382.8,0h32.219l6.061-40.513h43.065L470.206,0h35.409Zm-27.434,39.556L459.36-70.818H425.546Zm74.965,14.036C517.418-105.908,586-97.3,586-51.359c0,15.95-7.018,21.692-18.183,21.692s-18.183-5.742-18.183-21.692v-15.95H516.461v13.717c0,35.728,17.864,56.144,52.316,56.144s52.316-20.416,52.316-56.144c0-63.8-68.585-72.413-68.585-118.349,0-15.95,6.38-22.011,17.545-22.011s17.545,6.061,17.545,22.011v9.251h33.176v-7.018c0-35.728-17.545-56.144-51.678-56.144S517.418-205.436,517.418-169.708ZM676.28-191.4h60.61v-31.9h-95.7V0h95.7V-31.9H676.28V-97.3h48.169v-31.9H676.28Z" transform="translate(733.562 226.352)" fill="none" stroke="#000" stroke-width="1"/>
</svg>
