<svg xmlns="http://www.w3.org/2000/svg" width="566.957" height="603.659" viewBox="0 0 566.957 603.659"><defs><style>.a{opacity:0.67;}.b,.c{fill:none;}.b{stroke:#4e4e4e;stroke-miterlimit:10;}</style></defs><g class="a" transform="matrix(0.602, -0.799, 0.799, 0.602, -66.333, 132.068)"><path class="b" d="M-7.965-111.26,152.61,3.9,103.141,89.13Z" transform="translate(22.508 190.799)"/><path class="b" d="M102.656,89.13-8.45-111.26l-6.887,295.146Z" transform="translate(22.992 190.799)"/><path class="b" d="M104.094,204.865,99.019,329.219l-111.747-30.27Z" transform="translate(21.555 75.065)"/><path class="b" d="M97.1,383.35-17.933,456.4l2.925-103.428Z" transform="translate(23.471 20.934)"/><path class="b" d="M97.11,401.04,246.594,524.2-17.82,474.49Z" transform="translate(23.464 3.244)"/><path class="b" d="M255.138,566.325,98.862,626.194-8.991,516.531Z" transform="translate(14.92 -38.693)"/><path class="b" d="M92.931,626.565-20.962,582.086l.735-65.153Z" transform="translate(25.563 -39.064)"/><path class="b" d="M308.788,508.778l-42.31-149.863L159.3,385.618Z" transform="translate(-38.73 18.666)"/><path class="b" d="M266.478,302.517l-102.1-97.652L159.3,329.219Z" transform="translate(-38.73 75.065)"/><path class="b" d="M269.409,302.517l9.823-85.973L167.31,204.865Z" transform="translate(-41.661 75.065)"/><path class="b" d="M279.232,167.321,216.779,70.415,167.31,155.642Z" transform="translate(-41.661 124.287)"/><g transform="translate(5.005 543.329)"><path class="b" d="M92.959,665.12,31.778,718.672-20.53,620.947Z" transform="translate(20.53 -620.947)"/></g><path class="c" d="M370.029,233.2l-7.773,83.991,37.365-54.833Z" transform="translate(-113.032 64.693)"/><path class="c" d="M322.89,19.935,379.67,75.6,362.535,5.443Z" transform="translate(-98.62 148.074)"/><g transform="translate(-0.711 782.672)"><path class="b" d="M-26.063,621.495Z" transform="translate(26.063 -621.495)"/></g></g></svg>