<svg xmlns="http://www.w3.org/2000/svg" width="273.46" height="1670.72" viewBox="0 0 273.46 1670.72">
  <path id="Path_22184" data-name="Path 22184" d="M-791.54-204.82c0-19,8.36-26.22,21.66-26.22s21.66,7.22,21.66,26.22V-61.18c0,19-8.36,26.22-21.66,26.22s-21.66-7.22-21.66-26.22Zm-41.8,140.98c0,42.56,22.42,66.88,63.46,66.88s63.46-24.32,63.46-66.88V-202.16c0-42.56-22.42-66.88-63.46-66.88s-63.46,24.32-63.46,66.88Zm152-202.16V-63.46c0,42.56,21.28,66.88,62.32,66.88S-556.7-20.9-556.7-63.46V-266h-39.52V-60.8c0,19-8.36,25.84-21.66,25.84s-21.66-6.84-21.66-25.84V-266ZM-398.24,0c-4.18-9.88-4.56-19.38-4.56-32.3V-73.34c0-27.74-6.84-47.88-27.74-56.62,18.62-8.74,27.36-26.6,27.36-53.96v-20.9c0-41.04-18.62-61.18-61.94-61.18H-528.2V0h41.8V-108.3h14.44c19,0,27.36,9.12,27.36,33.82v41.8c0,21.66,1.52,25.84,3.8,32.68Zm-68.02-228c14.82,0,21.28,8.36,21.28,27.36v26.22c0,21.28-9.5,28.12-25.08,28.12H-486.4V-228Zm211.28-38h-61.56V0h41.8V-99.94h19.76c41.8,0,62.32-23.18,62.32-65.74v-34.58C-192.66-242.82-213.18-266-254.98-266Zm0,38c13.3,0,20.52,6.08,20.52,25.08v39.9c0,19-7.22,25.08-20.52,25.08h-19.76V-228ZM-43.32,0c-4.18-9.88-4.56-19.38-4.56-32.3V-73.34c0-27.74-6.84-47.88-27.74-56.62,18.62-8.74,27.36-26.6,27.36-53.96v-20.9c0-41.04-18.62-61.18-61.94-61.18h-63.08V0h41.8V-108.3h14.44c19,0,27.36,9.12,27.36,33.82v41.8c0,21.66,1.52,25.84,3.8,32.68Zm-68.02-228c14.82,0,21.28,8.36,21.28,27.36v26.22c0,21.28-9.5,28.12-25.08,28.12h-16.34V-228Zm129.2,23.18c0-19,8.36-26.22,21.66-26.22s21.66,7.22,21.66,26.22V-61.18c0,19-8.36,26.22-21.66,26.22S17.86-42.18,17.86-61.18ZM-23.94-63.84c0,42.56,22.42,66.88,63.46,66.88s63.46-24.32,63.46-66.88V-202.16c0-42.56-22.42-66.88-63.46-66.88s-63.46,24.32-63.46,66.88ZM129.96,0h66.12c41.8,0,62.32-23.18,62.32-65.74V-200.26c0-42.56-20.52-65.74-62.32-65.74H129.96Zm65.36-228c13.3,0,21.28,6.84,21.28,25.84V-63.84c0,19-7.98,25.84-21.28,25.84H171.76V-228Zm87.78-38V-63.46c0,42.56,21.28,66.88,62.32,66.88s62.32-24.32,62.32-66.88V-266H368.22V-60.8c0,19-8.36,25.84-21.66,25.84S324.9-41.8,324.9-60.8V-266ZM517.94-99.18v38c0,19-8.36,25.84-21.66,25.84s-21.66-6.84-21.66-25.84V-204.82c0-19,8.36-26.22,21.66-26.22s21.66,7.22,21.66,26.22v28.5h39.52v-25.84c0-42.56-21.28-66.88-62.32-66.88s-62.32,24.32-62.32,66.88V-63.84c0,42.56,21.28,66.88,62.32,66.88s62.32-24.32,62.32-66.88V-99.18ZM570.76-228h43.7V0h41.8V-228h43.7v-38H570.76Zm142.12,25.84c0,76,81.7,86.26,81.7,140.98,0,19-8.36,25.84-21.66,25.84s-21.66-6.84-21.66-25.84v-19H711.74v16.34c0,42.56,21.28,66.88,62.32,66.88s62.32-24.32,62.32-66.88c0-76-81.7-86.26-81.7-140.98,0-19,7.6-26.22,20.9-26.22s20.9,7.22,20.9,26.22v11.02H836v-8.36c0-42.56-20.9-66.88-61.56-66.88S712.88-244.72,712.88-202.16Z" transform="translate(3.92 833.84) rotate(90)" fill="none" stroke="#000" stroke-width="1" opacity="0.513"/>
</svg>
