<svg xmlns="http://www.w3.org/2000/svg" width="1114.21" height="338.763" viewBox="0 0 1114.21 338.763"><defs><style>.a,.b{fill:none;}.a{stroke:#f60074;stroke-miterlimit:10;}</style></defs><g transform="translate(29.537 354.561) rotate(-96)"><path class="a" d="M-7.965-111.26,163.914,12.01l-52.951,91.226Z" transform="translate(23.581 190.799)"/><path class="a" d="M110.962,103.237-7.965-111.26l-7.372,315.922Z" transform="translate(23.581 190.799)"/><path class="a" d="M112.317,204.865l-5.432,133.109-119.613-32.4Z" transform="translate(22.226 89.171)"/><path class="a" d="M105.2,385.488l-123.134,78.19L-14.8,352.969Z" transform="translate(23.911 41.656)"/><path class="a" d="M105.2,401.04,265.208,532.87-17.82,479.661Z" transform="translate(23.911 26.105)"/><path class="a" d="M273.731,569.831,106.455,633.914-8.991,516.531Z" transform="translate(15.388 -10.654)"/><path class="a" d="M100.948,634.283l-121.91-47.61.787-69.739Z" transform="translate(25.937 -11.023)"/><path class="a" d="M319.311,519.327,274.022,358.915,159.3,387.5Z" transform="translate(-30.192 39.647)"/><path class="a" d="M274.022,309.391,164.736,204.865,159.3,337.973Z" transform="translate(-30.192 89.171)"/><path class="a" d="M276.6,309.391l10.515-92.025-119.8-12.5Z" transform="translate(-32.766 89.171)"/><path class="a" d="M287.111,174.143,220.261,70.415,167.31,161.642Z" transform="translate(-32.766 132.394)"/><path class="a" d="M100.948,668.23,35.46,725.551l-55.99-104.6Z" transform="translate(25.937 -44.97)"/><path class="a" d="M30.417,725.551l-61.4,151.086,4.918-255.143Z" transform="translate(30.98 -44.97)"/><path class="a" d="M183.3,729.486l78.647-21.427-81.78,79.863Z" transform="translate(-36.9 -72.595)"/><path class="b" d="M370.576,233.2l-8.32,89.9,40-58.693Z" transform="translate(-95.438 80.064)"/><path class="b" d="M322.89,20.955l60.778,59.589-18.342-75.1Z" transform="translate(-82.782 153.282)"/><path class="a" d="M188.343-174.252l125.936-54.233-97.629,2.067Z" transform="translate(-39.528 228.485)"/><g transform="translate(-5.628 255.645)"><path class="a" d="M100.948,668.23,35.46,725.551l-55.99-104.6Z" transform="translate(25.937 -44.97)"/><path class="a" d="M30.417,725.551l-61.4,151.086,4.918-255.143Z" transform="translate(30.98 -44.97)"/></g></g></svg>