<svg xmlns="http://www.w3.org/2000/svg" width="273.08" height="1428.28" viewBox="0 0 273.08 1428.28">
  <path id="Path_22216" data-name="Path 22216" d="M-679.25-266h-61.56V0h41.8V-99.94h19.76c41.8,0,62.32-23.18,62.32-65.74v-34.58C-616.93-242.82-637.45-266-679.25-266Zm0,38c13.3,0,20.52,6.08,20.52,25.08v39.9c0,19-7.22,25.08-20.52,25.08h-19.76V-228ZM-467.59,0c-4.18-9.88-4.56-19.38-4.56-32.3V-73.34c0-27.74-6.84-47.88-27.74-56.62,18.62-8.74,27.36-26.6,27.36-53.96v-20.9c0-41.04-18.62-61.18-61.94-61.18h-63.08V0h41.8V-108.3h14.44c19,0,27.36,9.12,27.36,33.82v41.8c0,21.66,1.52,25.84,3.8,32.68Zm-68.02-228c14.82,0,21.28,8.36,21.28,27.36v26.22c0,21.28-9.5,28.12-25.08,28.12h-16.34V-228Zm129.2,23.18c0-19,8.36-26.22,21.66-26.22s21.66,7.22,21.66,26.22V-61.18c0,19-8.36,26.22-21.66,26.22s-21.66-7.22-21.66-26.22Zm-41.8,140.98c0,42.56,22.42,66.88,63.46,66.88s63.46-24.32,63.46-66.88V-202.16c0-42.56-22.42-66.88-63.46-66.88s-63.46,24.32-63.46,66.88Zm216.6-46.36h19v49.02c0,19-8.36,25.84-21.66,25.84s-21.66-6.84-21.66-25.84V-204.82c0-19,8.36-26.22,21.66-26.22s21.66,7.22,21.66,26.22v28.5h39.52v-25.84c0-42.56-21.28-66.88-62.32-66.88s-62.32,24.32-62.32,66.88V-63.84c0,42.56,21.28,66.88,62.32,66.88s62.32-24.32,62.32-66.88V-148.2h-58.52ZM-16.15,0c-4.18-9.88-4.56-19.38-4.56-32.3V-73.34c0-27.74-6.84-47.88-27.74-56.62,18.62-8.74,27.36-26.6,27.36-53.96v-20.9c0-41.04-18.62-61.18-61.94-61.18h-63.08V0h41.8V-108.3h14.44c19,0,27.36,9.12,27.36,33.82v41.8c0,21.66,1.52,25.84,3.8,32.68ZM-84.17-228c14.82,0,21.28,8.36,21.28,27.36v26.22c0,21.28-9.5,28.12-25.08,28.12h-16.34V-228ZM99.37-266H38.19L-4.37,0H34.01l7.22-48.26h51.3L99.75,0h42.18ZM66.69-218.88,86.83-84.36H46.55ZM219.07-266H160.93V0h36.48V-188.1L228.57,0h39.52l28.88-190.76V0h39.52V-266H278.35L249.85-77.14Zm205.58,0H366.51V0h36.48V-188.1L434.15,0h39.52l28.88-190.76V0h39.52V-266H483.93L455.43-77.14Zm189.62,38h72.2v-38h-114V0h114V-38h-72.2v-77.9h57.38v-38H614.27Z" transform="translate(269.54 686.97) rotate(-90)" fill="none" stroke="#222" stroke-width="1"/>
</svg>
