<svg xmlns="http://www.w3.org/2000/svg" width="107.225" height="93.822" viewBox="0 0 107.225 93.822">
  <path id="Icon_awesome-quote-right" data-name="Icon awesome-quote-right" d="M97.173,2.25H70.366A10.055,10.055,0,0,0,60.314,12.3V39.109A10.055,10.055,0,0,0,70.366,49.161H87.12v13.4a13.416,13.416,0,0,1-13.4,13.4H72.042a5.014,5.014,0,0,0-5.026,5.026V91.046a5.014,5.014,0,0,0,5.026,5.026h1.675a33.5,33.5,0,0,0,33.508-33.508V12.3A10.055,10.055,0,0,0,97.173,2.25Zm-60.314,0H10.052A10.055,10.055,0,0,0,0,12.3V39.109A10.055,10.055,0,0,0,10.052,49.161H26.806v13.4a13.416,13.416,0,0,1-13.4,13.4H11.728A5.014,5.014,0,0,0,6.7,80.993V91.046a5.014,5.014,0,0,0,5.026,5.026H13.4A33.5,33.5,0,0,0,46.911,62.564V12.3A10.055,10.055,0,0,0,36.859,2.25Z" transform="translate(0 -2.25)" opacity="0.055"/>
</svg>
