<svg xmlns="http://www.w3.org/2000/svg" width="18.599" height="15.108" viewBox="0 0 18.599 15.108"><defs><style>.a{fill:#fff;}</style></defs><path class="a" d="M18.6,1.79a7.726,7.726,0,0,1-1.906,1.97q.011.219.011.494a10.96,10.96,0,0,1-1.809,6,11.592,11.592,0,0,1-2.184,2.485,9.737,9.737,0,0,1-3.047,1.726,11.13,11.13,0,0,1-3.814.644A10.62,10.62,0,0,1,0,13.394a8.251,8.251,0,0,0,.91.053A7.481,7.481,0,0,0,5.65,11.812a3.7,3.7,0,0,1-2.216-.761A3.75,3.75,0,0,1,2.087,9.162,3.814,3.814,0,0,0,3.81,9.1,3.719,3.719,0,0,1,1.62,7.783,3.692,3.692,0,0,1,.75,5.358V5.311a3.766,3.766,0,0,0,1.729.477,3.79,3.79,0,0,1-1.24-1.36A3.723,3.723,0,0,1,.78,2.615,3.749,3.749,0,0,1,1.3.7,10.864,10.864,0,0,0,4.775,3.514,10.6,10.6,0,0,0,9.16,4.685a3.731,3.731,0,0,1-.1-.868,3.676,3.676,0,0,1,1.118-2.7A3.817,3.817,0,0,1,15.66,1.2,7.6,7.6,0,0,0,18.083.277a3.689,3.689,0,0,1-1.676,2.111,7.625,7.625,0,0,0,2.192-.6Z"/></svg>