<svg xmlns="http://www.w3.org/2000/svg" width="22.3" height="22.3" viewBox="0 0 22.3 22.3"><defs><style>.a,.b{fill:#fff;}.a{fill-rule:evenodd;}</style></defs><path class="a" d="M11.15,20.906A9.756,9.756,0,1,0,1.394,11.15,9.756,9.756,0,0,0,11.15,20.906Zm0,1.394A11.15,11.15,0,1,0,0,11.15,11.15,11.15,0,0,0,11.15,22.3Z"/><path class="b" d="M18.013,14.823l-3.191.4-.114.53.627.116c.409.1.491.245.4.654l-1.028,4.834c-.27,1.25.146,1.839,1.126,1.839a2.886,2.886,0,0,0,2.042-.833l.123-.58a1.544,1.544,0,0,1-.956.343c-.383,0-.523-.269-.424-.743Z" transform="translate(-5.566 -5.641)"/><path class="b" d="M18.538,9.269a1.394,1.394,0,1,1-1.394-1.394A1.394,1.394,0,0,1,18.538,9.269Z" transform="translate(-5.994 -2.997)"/></svg>