<svg xmlns="http://www.w3.org/2000/svg" width="20.299" height="20.314" viewBox="0 0 20.299 20.314"><defs><style>.a{fill:#fff;}</style></defs><path class="a" d="M15.278.039H5.125A5.071,5.071,0,0,0,.052,5.1V15.3a5.071,5.071,0,0,0,5.073,5.056H15.278A5.071,5.071,0,0,0,20.351,15.3V5.1A5.07,5.07,0,0,0,15.278.04ZM18.472,15.3a3.192,3.192,0,0,1-3.194,3.183H5.125A3.192,3.192,0,0,1,1.931,15.3V8.708H5.945a4.763,4.763,0,0,0-.458,2.04,4.819,4.819,0,0,0,9.637,0,4.755,4.755,0,0,0-.458-2.04h3.806V15.3ZM8.3,10.748a2,2,0,1,1,2,1.993A2,2,0,0,1,8.3,10.748ZM18.472,6.835H13.094a4.815,4.815,0,0,0-5.577,0H1.931V5.1A3.192,3.192,0,0,1,5.125,1.912H15.278A3.192,3.192,0,0,1,18.472,5.1v1.74ZM16.436,3.047H14.695a.565.565,0,0,0-.564.562V5.345a.564.564,0,0,0,.564.562h1.742A.565.565,0,0,0,17,5.345V3.609A.564.564,0,0,0,16.436,3.047Z" transform="translate(-0.052 -0.039)"/></svg>