<svg xmlns="http://www.w3.org/2000/svg" width="16.612" height="11.61" viewBox="0 0 16.612 11.61"><defs><style>.a{fill:#fff;}</style></defs><path class="a" d="M16.271,7.217a2.082,2.082,0,0,0-1.446-1.446A49.853,49.853,0,0,0,8.32,5.424a48.739,48.739,0,0,0-6.506.347A2.082,2.082,0,0,0,.368,7.217a21.635,21.635,0,0,0-.361,4.019,21.635,21.635,0,0,0,.361,4,2.082,2.082,0,0,0,1.446,1.446,49.777,49.777,0,0,0,6.506.348,49.9,49.9,0,0,0,6.506-.348,2.082,2.082,0,0,0,1.446-1.446,21.635,21.635,0,0,0,.346-4,21.635,21.635,0,0,0-.346-4.019ZM6.657,13.723V8.742l4.337,2.494Z" transform="translate(-0.007 -5.424)"/></svg>