<svg xmlns="http://www.w3.org/2000/svg" width="274.08" height="1047" viewBox="0 0 274.08 1047">
  <path id="Path_22215" data-name="Path 22215" d="M-526.87-228h43.7V0h41.8V-228h43.7v-38h-129.2ZM-249.47,0c-4.18-9.88-4.56-19.38-4.56-32.3V-73.34c0-27.74-6.84-47.88-27.74-56.62,18.62-8.74,27.36-26.6,27.36-53.96v-20.9c0-41.04-18.62-61.18-61.94-61.18h-63.08V0h41.8V-108.3h14.44c19,0,27.36,9.12,27.36,33.82v41.8c0,21.66,1.52,25.84,3.8,32.68Zm-68.02-228c14.82,0,21.28,8.36,21.28,27.36v26.22c0,21.28-9.5,28.12-25.08,28.12h-16.34V-228Zm183.54-38h-61.18L-237.69,0h38.38l7.22-48.26h51.3L-133.57,0h42.18Zm-32.68,47.12,20.14,134.52h-40.28ZM-72.01,0h41.8V-266h-41.8ZM89.49,0h42.94V-266H95.19v159.22L52.25-266H-.19V0H37.43V-192.66Zm72.96,0h41.8V-266h-41.8Zm161.5,0h42.94V-266H329.65v159.22L286.71-266H234.27V0h37.62V-192.66ZM459.61-110.2h19v49.02c0,19-8.36,25.84-21.66,25.84s-21.66-6.84-21.66-25.84V-204.82c0-19,8.36-26.22,21.66-26.22s21.66,7.22,21.66,26.22v28.5h39.52v-25.84c0-42.56-21.28-66.88-62.32-66.88s-62.32,24.32-62.32,66.88V-63.84c0,42.56,21.28,66.88,62.32,66.88s62.32-24.32,62.32-66.88V-148.2H459.61Z" transform="translate(270.04 519.13) rotate(-90)" fill="none" stroke="#222" stroke-width="2"/>
</svg>
